<svg fill="#ffffff" xmlns="http://www.w3.org/2000/svg"  viewBox="0 0 26 26" width="26px" height="26px"><path d="M 12.136719 12.839844 L 9.648438 21.390625 C 7.484375 19.9375 5.132813 18.738281 0.144531 20.804688 L 2.574219 12.34375 L 2.605469 12.328125 C 7.574219 10.285156 9.980469 11.378906 12.136719 12.839844 Z M 13.4375 13.664063 L 10.980469 22.121094 C 13.140625 23.589844 15.53125 24.757813 20.515625 22.695313 L 22.886719 14.449219 C 17.808594 16.1875 15.597656 15.117188 13.4375 13.664063 Z M 12.550781 11.300781 L 15.003906 2.828125 C 12.84375 1.367188 10.449219 0.195313 5.464844 2.261719 L 3.007813 10.769531 C 4.988281 9.953125 6.550781 9.578125 7.859375 9.589844 C 9.851563 9.601563 11.246094 10.425781 12.550781 11.300781 Z M 16.300781 3.71875 L 13.84375 12.238281 C 15.996094 13.699219 18.601563 14.894531 23.375 12.761719 L 25.828125 4.273438 C 20.847656 6.328125 18.453125 5.175781 16.300781 3.71875 Z"/></svg>