<svg id="Layer_1" data-name="Layer 1" xmlns="http://www.w3.org/2000/svg" viewBox="0 0 16 16"><path id="pending-a" d="M13.12,14.13l.15-.13-.7-.91a6.89,6.89,0,0,0,1.56-2,6.79,6.79,0,0,0,.71-3,6.88,6.88,0,0,0-6.9-6.86V0A8,8,0,0,1,16,8a7.92,7.92,0,0,1-.84,3.56A8,8,0,0,1,13.12,14.13Zm-2.28,1.34a8.08,8.08,0,0,1-2.9.53V14.86a6.93,6.93,0,0,0,2.53-.48ZM3.48,13.22a6.92,6.92,0,0,0,2.08,1.19l-.39,1.07a8.07,8.07,0,0,1-2.4-1.39Zm-2.33-4A6.77,6.77,0,0,0,2,11.43L1,12A7.9,7.9,0,0,1,0,9.38ZM5.54,1.58a6.91,6.91,0,0,0-2.06,1.2L2.77,1.9A8.07,8.07,0,0,1,5.15.5ZM2,4.57a6.77,6.77,0,0,0-.79,2.22L0,6.59A7.9,7.9,0,0,1,1,4Zm8.24,7L7,8.38V3H8.14V7.9L11,10.76Z"/></svg>