<svg xmlns="http://www.w3.org/2000/svg" viewBox="0 0 28 23"><path fill="#ffffff" id="a" d="M11.11,2.83A3.73,3.73,0,0,0,7.47,0,3.81,3.81,0,0,0,3.83,2.83H0V4.72H3.83A3.73,3.73,0,0,0,7.47,7.55a3.81,3.81,0,0,0,3.64-2.83H28V2.83ZM7.47,4.72a.89.89,0,0,1-.93-.94.89.89,0,0,1,.93-.94.89.89,0,0,1,.93.94A.89.89,0,0,1,7.47,4.72ZM20.53,7.55a3.81,3.81,0,0,1,3.64,2.83H28v1.89H24.17a3.81,3.81,0,0,1-3.64,2.83,3.73,3.73,0,0,1-3.64-2.83H0V10.38H16.89a3.81,3.81,0,0,1,3.64-2.83Zm0,4.72a.89.89,0,0,0,.93-.94.93.93,0,1,0-1.87,0A.89.89,0,0,0,20.53,12.27ZM7.47,15.1a3.82,3.82,0,0,1,3.64,2.83H28v1.89H11.11a3.82,3.82,0,0,1-3.64,2.83,3.73,3.73,0,0,1-3.64-2.83H0V17.93H3.83A3.81,3.81,0,0,1,7.47,15.1Zm0,4.72a.94.94,0,0,0,0-1.89.94.94,0,0,0,0,1.89Z"/></svg>