<svg xmlns="http://www.w3.org/2000/svg"><path fill-rule="nonzero" transform="translate(7,3)" d="M5.452 9.452l-1.529.898-.54-.947L6.53 7.516l1.937 3.151-.87.562-1.07-1.7a3.323 3.323 0 0 0 3.689 4.997l.636 1.018a4.395 4.395 0 0 1-5.4-6.091zm8.224 2.945l1.467-.871.555 1.004-3.146 1.886-1.937-3.15.98-.624.938 1.545a3.328 3.328 0 0 0-2.626-4.136L9.25 7.002 9.395 7a4.395 4.395 0 0 1 4.281 5.397zM7 1H1.455C1.204 1 1 1.265 1 1.59v11.82c0 .325.204.59.455.59h3.263c.211.363.464.698.751 1H1.385C.62 15 0 14.225 0 13.27V1.73C0 .776.62 0 1.385 0h6c.122 0 .24.06.326.169l4.154 4.399a.657.657 0 0 1 .135.407v1.743a5.299 5.299 0 0 0-1-.45V5.011H7.727c-.401 0-.727-.556-.727-1.01V1zm1 .863v2.139h2.045L8 1.862z"/></svg>