<svg data-name="Layer 1" viewBox="0 0 16 16"><path d="M11.85 3.45L15.29 0l.71.71L12.72 4a11.92 11.92 0 0 1 3.35 3.93Q13 13.5 8 13.5a7.68 7.68 0 0 1-3.82-1L.7 16l-.7-.71L3.32 12A11.85 11.85 0 0 1 0 7.93Q3 2.5 8 2.5a7.94 7.94 0 0 1 3.85.95zm-6.93 8.34A6.73 6.73 0 0 0 8 12.5c2.79 0 5.08-1.48 6.91-4.57A10.29 10.29 0 0 0 12 4.71l-1.55 1.55a3 3 0 0 1-4.19 4.18zM4 11.25l1.55-1.51a3 3 0 0 1 4.19-4.18l1.36-1.37A7 7 0 0 0 8 3.5c-2.8 0-5 1.44-6.82 4.43A10.22 10.22 0 0 0 4 11.25zm3-1.53A2 2 0 0 0 9.72 7zM6.28 9L9 6.28A2 2 0 0 0 6.28 9z"/></svg>