<svg xmlns="http://www.w3.org/2000/svg" viewBox="0 0 32 32">
    <path id="a" d="M19.9 7.056a2.144 2.144 0 0 0 1.515 3.658 2.141 2.141 0 0 0 1.514-3.658 2.143 2.143 0 0 0-3.028 0zM20.345 0a9.633 9.633 0 0 0-7.74 3.898 9.646 9.646 0 0 0-1.481 8.543L0 23.571V30h6.424l11.124-11.13a9.642 9.642 0 0 0 8.216-1.251 9.655 9.655 0 0 0 4.196-7.179 9.426 9.426 0 0 0-1.746-6.393A9.706 9.706 0 0 0 20.344 0zm0 17.143c-.737 0-1.47-.11-2.176-.324l-1.227-.373-.908.908-3.406 3.408-1.476-1.476L9.637 20.8l1.476 1.477-1.698 1.7L7.939 22.5l-1.515 1.515 1.477 1.477-2.364 2.365H2.141V24.46l10.496-10.502.907-.908-.307-1.016a7.643 7.643 0 0 1 3.642-9.046 7.509 7.509 0 0 1 7.253.184 7.519 7.519 0 0 1 3.716 6.235 7.199 7.199 0 0 1-1.17 4.282 7.565 7.565 0 0 1-6.334 3.455z"/>
</svg>