<svg id="Layer_1" xmlns="http://www.w3.org/2000/svg" viewBox="0 0 792 612"><style>.st2{fill:#d31245}.st5{fill:#fff}.st6{fill:#1b4298}</style><linearGradient id="SVGID_1_" gradientUnits="userSpaceOnUse" y1="612" x2=".7071" y2="611.2929"><stop offset="0" stop-color="#20ac4b"/><stop offset=".9831" stop-color="#19361a"/></linearGradient><linearGradient id="SVGID_2_" gradientUnits="userSpaceOnUse" x1="146.6074" y1="330.9863" x2="264.2549" y2="330.9863"><stop offset="0" stop-color="#d31245"/><stop offset=".0781" stop-color="#d31245"/><stop offset="1" stop-color="#efb5af"/></linearGradient><path fill="url(#SVGID_2_)" d="M146.6 294.2l3.5 2.2 8.7 5.4 3.9 2.5 11.3 7 2.3 1.5 16.5 10.3 9.1 5.7 3.1 1.9 3.9 2.4 8.8 5.5 3.6 2.3 27.2 17 2.9 1.8 1.6 1 4 2.5 7.3 4.5"/><linearGradient id="SVGID_3_" gradientUnits="userSpaceOnUse" x1="108.377" y1="257.0835" x2="683.6445" y2="257.0835"><stop offset="0" stop-color="#d31245"/><stop offset=".0781" stop-color="#d31245"/><stop offset="1" stop-color="#efb5af"/></linearGradient><path d="M393 137.9l-5.3-3.3-13.9-8.7-10.7-6.7-2.9-1.8-3.9-2.4-8.7-5.4-3.5-2.2-4.4-2.8c-2.5-1.6-5.9-1.6-8.4 0 0 0-4 2.5-10.8 6.7-1.2.7-2.5 1.5-3.8 2.4-2.7 1.7-5.7 3.6-9 5.6-1.2.7-2.4 1.5-3.6 2.2l-4.8 3c-.2.2-.6.4-1 .6-6.6 4.1-13.8 8.6-21.6 13.5-1.3.8-2.6 1.6-4 2.5-3.7 2.3-7.5 4.7-11.4 7.1-1.5.9-2.9 1.8-4.4 2.8-.5.3-1.1.7-1.6 1-1.8 1.1-3.7 2.3-5.5 3.4-5.5 3.5-11.1 7-16.8 10.5-.8.5-1.6 1-2.3 1.5-2.9 1.8-5.9 3.7-8.8 5.5l-3.9 2.4c-3 1.9-6 3.7-8.9 5.6-1.2.7-2.4 1.5-3.6 2.2-8.5 5.3-16.8 10.5-24.7 15.5-1.3.8-2.6 1.6-3.8 2.4-2.5 1.6-5 3.1-7.5 4.7-1.3.8-2.6 1.7-4 2.5-.9.6-1.9 1.2-2.8 1.8-1.4.9-2.8 1.7-4.1 2.6-1.4.9-2.9 1.8-4.3 2.7l-4.8 3c-6.6 4.1-12.4 7.7-17 10.7-2.2 1.4-4.2 2.6-6 3.7-1.3.8-2.5 1.6-3.5 2.2-2.4 1.5-3.7 2.3-3.7 2.3h-.1l-.1.1c-.6.4-1.3.9-1.9 1.3-.1.1-.2.2-.3.2-.7.6-1.3 1.2-1.9 1.8-.2.2-.4.4-.5.6l-1.2 1.5c-.2.2-.4.5-.5.7-.4.5-.7 1.1-1.1 1.7-.1.2-.2.4-.4.6-.1.1-.1.2-.2.4-.4.7-.7 1.3-1 2.1-.1.2-.1.4-.2.5l-.3.9c-.1.4-.3.7-.4 1.1-.1.3-.2.6-.2.9-.2.6-.3 1.3-.4 2 0 .3-.1.6-.1.8v.8c15.9 5.1 67 22 67 22l-64-8.1c.1.1.1.2.2.3.3.6.7 1.1 1.1 1.7.2.2.3.5.5.7.4.5.8 1 1.3 1.5.2.2.3.4.5.5.6.6 1.3 1.2 2 1.8.1.1.3.2.5.3.4.3.9.6 1.3.9.1.1.3.2.4.3.1.1.2.1.3.2v.1l2.8 1.8 209 130.6c1.3.8 2.7 1.2 4.2 1.2s2.9-.4 4.2-1.2l5.6-3.5 3.9-2.5 7-4.4 4-2.5 2.8-1.7 4-2.5 5-3.1 4.6-2.9 17.3-10.8 5.1-3.2 3.7-2.3h.1l9 5.6 16.4 10.3 10.9 6.8 11.4 7.1 2.3 1.5c.5.3 1.1.6 1.6.7 2.2.8 4.7.5 6.8-.7l.7-.4 3.8-2.4 9-5.6 3.7-2.3 4.1-2.6 2.9-1.8 18.3-11.4 4.2-2.6 6.2-3.9.6-.4c1.7-1.1 2.9-2.7 3.4-4.6.2-.7.3-1.4.3-2.1 0-1.4-.4-2.7-1-3.9-.2-.5-.4-1-.6-1.3-.3-.3-.7-.6-1.2-.9-.3-.2-.5-.5-.9-.7l-20.8-13-4-2.5-15.8-9.9-3.1-1.9 3.1-1.9 21.2-13.3c.7-.3 1.3-.6 1.6-1l12.7-7.9 4-2.5 2.2-1.4 5 3.1 4 2.5 6.8 4.2 4.1 2.6 19.3 12c.4.2.8.4 1 .6l4.8 3 3.6 2.2 9 5.6 3.8 2.4 27.2 17 5.1 3.2 3.1 1.9 4.2 2.6 1.6 1c1.2.8 2.5 1.1 3.9 1.1 1.3 0 2.7-.4 3.9-1.1l2-1.3 4-2.5 35.6-22.2 4-2.5 8-5c.1-.1.2-.2.3-.2 1-.7 1.8-1.7 2.4-2.8.5-1 .8-2 .8-3.1 0-2.5-1.3-4.8-3.4-6.2l-8.2-5.1-5.1-3.2-3.1-1.9-4.1-2.6-2.9-1.8-3.9-2.5-8.1-5.1-3.6-2.3-28.3-17.7-4-2.5-11.5-7.2-9.4-5.9-4.4-2.8 17.4-10.9 3.5-2.2 8.9-5.6 3.9-2.4 7.1-4.4 4.9-3.1 16.7-10.4 10.8-6.7 2.9-1.8 3.9-2.4 8.7-5.4 3.5-2.2 4.7-3c2.3-1.5 3.7-4 3.7-6.7 0-1.3-.3-2.5-.9-3.5-.6-1.3-1.6-2.4-2.8-3.2l-.5-.3-3.5-2.2-3.8-2.4-9-5.6-3.7-2.3-4.1-2.5-3.3-2.1-18.4-10.9-4.3-2.7-3.3-2.1c-.8-.5-1.8-.9-2.8-1-1.3-.2-2.6-.1-3.9.2-.6.2-1.2.4-1.8.8l-5.6 3.5-3 1.9-16.6 10.6-11.2 7-4.1 2.6-4 2.5-8.1 5.1-3.6 2.3-28.3 17.5-4 2.5-11.5 7.2-3.2 2-1.2-.7-8.5-5.2-3.9-2.4-2.9-1.8-4.3-2.6-2.1-1.3-5.5-3.4-15.7-9.5 1.4-.9 5.9-3.7 11.9-7.4 4-2.5 20.7-12.9c2.3-1.5 3.7-4 3.7-6.7s-1.4-5.3-3.7-6.7l-.9-.6-4-2.5-3.7-2.3-3-1.9-28.8-18.1-4-2.5-9-5.6c-.7-.5-1.5-.8-2.4-.9-1.3-.3-2.6-.3-3.9 0-.7.2-1.5.5-2.1.9l-6.9 4.3-3.7 2.3-3.6 2.3-5.3 3.3-15.6 9.8-3.9 2.4-7.3 4.6-2.9 1.8-1-.6-2.9-1.8-4.2-2.6-2.4-1.4z" fill="url(#SVGID_3_)"/><path class="st2" d="M335.4 411.2c-1.5 0-3.1-.4-4.4-1.3L119 277.4l-.1-.2-.3-.2c-.6-.4-1.1-.7-1.5-1l-.5-.4c-.7-.6-1.4-1.2-2-1.8l-.3-.3c-.6-.7-1.1-1.2-1.5-1.7-.2-.2-.4-.5-.5-.7-.4-.5-.8-1.1-1.1-1.7l-.4-.6.5-.2 60.4 7.6c-11.8-3.9-50.3-16.6-63.6-20.9l-.3-.1v-.6-.5l.1-.8c.1-.7.2-1.3.4-2l.2-.9c.1-.3.2-.5.3-.8l.2-.7c.1-.2.1-.4.2-.6l.2-.6c.3-.7.6-1.4 1-2.1l.4-.8c.4-.7.8-1.3 1.2-1.9l.5-.7c.4-.5.8-1 1.3-1.5l.5-.6c.6-.6 1.3-1.3 2-1.8l.3-.2c.6-.5 1.2-.9 1.9-1.4l.2-.2 179.1-111.9c.4-.2.7-.4.9-.6l32-20c2.6-1.6 6.2-1.6 8.7 0l63.7 39.8 49.1-30.7c.7-.4 1.4-.7 2.2-.9 1.3-.3 2.7-.4 4.1 0 .9.2 1.7.5 2.5 1l53.5 33.5c2.4 1.5 3.9 4.1 3.9 7 0 2.9-1.4 5.5-3.9 7l-43.4 27.1 43.3 26.4 103.2-64.5c.5-.3 1.1-.6 1.8-.8 1.3-.4 2.7-.5 4-.3 1.1.2 2 .6 2.9 1.1l53.5 33.4c1.3.8 2.3 1.9 3 3.3.6 1.2.9 2.4.9 3.7 0 2.9-1.4 5.5-3.9 7l-96.4 60.2 96 60c2.2 1.4 3.6 3.8 3.6 6.5 0 1.1-.3 2.2-.8 3.3-.6 1.2-1.4 2.2-2.5 2.9-.2.1-.2.2-.3.3l-53.5 33.4c-2.4 1.5-5.7 1.5-8.1 0l-62.4-39c-.3-.3-.6-.4-1-.6l-39-24.4-18.7 11.7c-.3.4-.9.8-1.7 1.1l-23.7 14.8 43.1 26.9c.2.2.5.4.7.6l.2.2c.5.2 1 .5 1.3.9.3.3.5.8.7 1.4.7 1.2 1 2.6 1 4 0 .7-.1 1.5-.3 2.2-.5 2-1.8 3.7-3.5 4.8L461 401.7c-2.1 1.3-4.7 1.6-7 .8-.7-.2-1.2-.5-1.7-.8l-49.9-31.2-62.9 39.3c-1 .9-2.5 1.4-4.1 1.4zM119.6 277l211.8 132.4c2.4 1.5 5.6 1.5 8 0l63.2-39.5.3.1 50.1 31.3c.4.3 1 .5 1.6.7 2.2.7 4.6.5 6.5-.7l4.4-2.8 49-30.7c1.6-1 2.7-2.6 3.2-4.4.2-.7.3-1.4.3-2 0-1.3-.3-2.5-1-3.7-.2-.6-.4-1-.6-1.2-.2-.3-.6-.5-1.1-.7l-.3-.3c-.2-.2-.4-.3-.6-.5l-44.1-27.5 24.8-15.5c.8-.3 1.2-.6 1.5-.9l19.1-12 39.3 24.6c.4.2.8.4 1.1.7l62.3 38.9c2.2 1.4 5.1 1.4 7.3 0l53.5-33.4.5.1-.2-.3c1-.7 1.7-1.6 2.2-2.7.5-1 .7-2 .7-3 0-2.4-1.2-4.6-3.2-5.9l-97-60.6 97.3-60.8c2.2-1.4 3.5-3.8 3.5-6.4 0-1.1-.3-2.3-.8-3.4-.6-1.3-1.6-2.3-2.7-3L626 150.5c-.8-.5-1.7-.8-2.6-1-1.2-.2-2.5-.1-3.7.2-.6.2-1.2.5-1.7.8l-103.5 64.7-44.7-27.2 44.4-27.7c2.2-1.4 3.5-3.8 3.5-6.4 0-2.6-1.3-5-3.5-6.4l-11.6-7.3-41.6-26.3c-.7-.4-1.4-.7-2.2-.9-1.2-.3-2.5-.3-3.7 0-.7.2-1.4.5-2 .9l-49.5 30.9-64-40c-2.3-1.5-5.6-1.5-8 0l-32 20c-.2.2-.5.4-1 .6L119.4 237.3c-.8.5-1.4 1-2 1.4h-.5l.2.3c-.7.5-1.3 1.1-1.9 1.8l-.5.6c-.4.5-.8.9-1.2 1.4l-.5.7c-.4.5-.7 1.1-1.1 1.7l-.4.6-.5.2.3.2c-.4.7-.7 1.3-1 2l-.2.5c-.1.2-.1.4-.2.5l-.2.7c-.1.2-.2.5-.2.7l-.2.9c-.2.6-.3 1.3-.4 1.9l-.1.8v.5c16 5.1 66.3 21.8 66.8 22l-.2.7-63.2-8c.3.4.6.9.9 1.3.2.2.3.5.5.7.4.5.8 1 1.3 1.5l.2.2.3.3c.6.6 1.3 1.2 1.9 1.8l.5.3c.4.3.8.6 1.3.9l.5.6z"/><linearGradient id="SVGID_4_" gradientUnits="userSpaceOnUse" x1="276.7402" y1="388.0039" x2="316.6025" y2="388.0039"><stop offset="0" stop-color="#d31245"/><stop offset=".0781" stop-color="#d31245"/><stop offset="1" stop-color="#efb5af"/></linearGradient><path fill="url(#SVGID_4_)" d="M276.7 375.5l17.1 10.7 2.7 1.7 7.4 4.6 3.8 2.4 8.9 5.6"/><g><path d="M254 474.4V507h-11.1v-72.9h16.5c4.9 0 8.6.3 11.3.9 2.7.6 4.9 1.7 6.8 3.2 2.3 1.8 4 4 5.2 6.8.6 1.3 1 2.8 1.3 4.4.3 1.6.5 3.2.5 4.8 0 5.8-1.4 10.4-4.2 13.7-2.8 3.3-7 5.3-12.5 6l25.1 33.2h-13.4l-24.2-32.6-1.3-.1zm.7-9.2h2.1c6.3 0 10.4-.7 12.5-2.2 2.1-1.5 3.1-4 3.1-7.8 0-3.9-1.1-6.8-3.3-8.4-2.2-1.7-6.3-2.5-12.2-2.5h-2.1v20.9zM340 485h-37.7c0 2.2.3 4.1 1 5.8.7 1.7 1.6 3.2 2.9 4.6 2.4 2.5 5.5 3.7 9.4 3.7 3.5 0 6.4-.7 8.7-2.2 2.3-1.5 4.3-3.8 6.1-7.1l9.1 5.1c-2.6 4.7-5.9 8.3-9.9 10.6-1.9 1.1-4 2-6.3 2.6-2.3.6-4.8.9-7.4.9-7.6 0-13.6-2.3-18.1-6.9-4.5-4.6-6.7-10.8-6.7-18.5 0-7.4 2.3-13.5 6.9-18.3 4.6-4.8 10.6-7.2 17.8-7.2 7.6 0 13.5 2.2 17.8 6.5 4.2 4.3 6.4 10.4 6.4 18.3v2.1zm-11.2-7.3c-.4-3.4-1.7-5.9-3.9-7.7-2.2-1.8-5.1-2.7-8.9-2.7-3.6 0-6.4.9-8.5 2.6-2.1 1.7-3.7 4.3-4.6 7.8h25.9zM381.7 429.8h10.8V507h-10.8v-6.1c-1.9 2.7-4.1 4.7-6.7 6.1-2.6 1.4-5.6 2.1-8.9 2.1-6.7 0-11.9-2.3-15.8-6.9-3.8-4.6-5.8-10.8-5.8-18.7 0-7.5 1.9-13.6 5.8-18.3 3.9-4.6 9-7 15.4-7 3.9 0 7.1.8 9.9 2.4 2.7 1.6 4.7 3.9 6 6.9v-37.7zm.3 53.5c0-4.9-1.1-8.7-3.4-11.4-2.3-2.7-5.5-4.1-9.5-4.1s-7.3 1.4-9.6 4.2c-2.4 2.8-3.5 6.7-3.5 11.7 0 5 1.1 8.9 3.4 11.6 2.3 2.7 5.4 4.1 9.6 4.1 3.8 0 7-1.5 9.5-4.4 2.2-3 3.5-6.9 3.5-11.7zM405.2 507v-37.7h-8.3v-9.5h8.3v-12.6c0-6.3 1.3-10.9 3.9-13.9 2.6-3 6.6-4.5 12.1-4.5h1.7c.6 0 1.2.1 1.8.2l1.8.3c.6.1 1.3.3 2 .5v9.8c-.8-.5-1.6-.8-2.3-1-.7-.2-1.2-.3-1.6-.4-.4-.1-.8-.1-1.4-.1-2.6 0-4.4.8-5.5 2.4-1.1 1.6-1.7 4.3-1.7 8v11.3h11.4v9.5H416V507h-10.8zM431.5 439.4c0-1.8.7-3.4 2-4.7 1.4-1.3 3-2 4.8-2 1.9 0 3.5.6 4.8 1.9 1.3 1.3 1.9 2.9 1.9 4.8s-.6 3.5-1.9 4.8c-1.3 1.3-2.9 2-4.8 2s-3.5-.7-4.8-2c-1.3-1.4-2-3-2-4.8zM433 507v-47.2h10.8V507H433zM449.2 498.5l9-4.9c.7 2.4 1.9 4.2 3.7 5.4 1.8 1.2 4.1 1.9 6.9 1.9 2.4 0 4.3-.5 5.7-1.6 1.4-1.1 2.1-2.6 2.1-4.6 0-2.6-2.5-4.8-7.4-6.6l-3.8-1.5c-2.6-1.1-4.7-2.1-6.4-3.1-1.7-1-3.1-2.1-4.2-3.2-2-2.2-3-4.8-3-7.9 0-4.2 1.7-7.6 5-10.2 3.3-2.7 7.7-4 13.1-4 3.7 0 6.8.7 9.4 2 2.6 1.3 4.5 3.3 5.7 5.8l-7.7 5.3c-.5-1.5-1.5-2.6-2.9-3.5-1.4-.9-3.1-1.3-4.9-1.3-2 0-3.7.5-4.9 1.5-1.3 1-1.9 2.3-1.9 3.9 0 2.4 2.8 4.7 8.4 6.7 1.8.6 3.2 1.1 4.1 1.5 4.3 1.7 7.4 3.6 9.3 5.8 1.9 2.2 2.8 4.9 2.8 8.2 0 4.7-1.7 8.4-5.1 11.1-3.4 2.7-8.1 4-14.1 4-4.6 0-8.4-.9-11.5-2.6-3.2-1.9-5.6-4.6-7.4-8.1zM493.8 507v-77.2H504v37.7c2.1-3.2 4.6-5.5 7.5-7.1 2.9-1.5 6.5-2.3 10.7-2.3 3.5 0 6.5.6 9 1.7s4.4 2.8 5.8 5c.8 1.3 1.4 2.8 1.8 4.5.2.8.3 2 .4 3.5.1 1.5.1 3.4.1 5.6V507h-10.9v-24.2c0-6.2-.8-10.3-2.3-12.3-1.5-2.1-4.2-3.1-8-3.1-2.5 0-4.8.5-6.7 1.4-2 .9-3.5 2.2-4.7 4-.8 1.1-1.3 2.5-1.6 4.3-.3 1.8-.5 4.7-.5 8.5V507h-10.8z"/><path class="st2" d="M628.1 155.7c2.7 0 4.6-.3 5.9-.8l-4.3-2.7c-.5 0-1 .1-1.5.1-2.1 0-3.3-.2-3.8-.8-.4-.4-.6-1.2-.7-2.4-1.3-.2-2.6-.1-3.9.2.2 2.3.6 3.9 1.2 4.6.9 1.3 3.3 1.8 7.1 1.8zM371.5 138.1v17.4h4v-20.9h-5.1l-6.7 6.3 2.3 2.6zM324.2 392.6l2.3 2.5 5.5-5.4v17.5h4v-20.9h-5.1zM312.2 134.4c-3.9 0-6.2.6-7.1 1.7-.9 1.1-1.4 4.1-1.4 8.9 0 4.8.5 7.8 1.4 9 .9 1.1 3.3 1.7 7.1 1.7s6.2-.6 7.1-1.7c.9-1.1 1.4-4.1 1.4-9 0-4.8-.5-7.8-1.4-8.9-.9-1.1-3.3-1.7-7.1-1.7zm3.9 16.8c-.4.7-1.7 1.1-3.9 1.1-2.1 0-3.3-.2-3.8-.8-.5-.5-.7-1.8-.7-3.9v-5.3c0-2 .2-3.2.7-3.7.5-.5 1.7-.8 3.5-.8 2.4 0 3.8.3 4.2.9.4.6.6 2.7.6 6.2s-.2 5.6-.6 6.3zM430.7 134.4c-3.8 0-6.2.6-7.1 1.7-.9 1.1-1.4 4.1-1.4 8.9 0 4.8.5 7.8 1.4 9 .9 1.1 3.3 1.7 7.1 1.7 3.9 0 6.2-.6 7.1-1.7.9-1.1 1.4-4.1 1.4-9 0-4.8-.5-7.8-1.4-8.9-.9-1.1-3.3-1.7-7.1-1.7zm3.9 16.8c-.4.7-1.7 1.1-3.9 1.1-2.1 0-3.3-.2-3.8-.8-.5-.5-.7-1.8-.7-3.9v-5.3c0-2 .2-3.2.7-3.7.5-.5 1.7-.8 3.5-.8 2.4 0 3.8.3 4.2.9.4.6.6 2.7.6 6.2s-.2 5.6-.6 6.3zM450.4 134.4c-3.9 0-6.2.6-7.1 1.7-.9 1.1-1.3 4.1-1.3 8.9 0 4.8.4 7.8 1.3 9 .9 1.1 3.3 1.7 7.1 1.7s6.2-.6 7.1-1.7c.9-1.1 1.4-4.1 1.4-9 0-4.8-.4-7.8-1.4-8.9-.9-1.1-3.3-1.7-7.1-1.7zm3.9 16.8c-.4.7-1.7 1.1-3.9 1.1-2.1 0-3.3-.2-3.8-.8-.5-.5-.7-1.8-.7-3.9v-5.3c0-2 .2-3.2.7-3.7.5-.5 1.7-.8 3.5-.8 2.4 0 3.8.3 4.2.9.4.6.6 2.7.6 6.2s-.2 5.6-.6 6.3zM319.3 387.8c-.9-1.1-3.3-1.7-7.1-1.7-3.9 0-6.2.6-7.1 1.7-.6.8-1 2.4-1.2 4.8l3.8 2.4v-1c0-2 .2-3.2.7-3.7.5-.5 1.7-.8 3.5-.8 2.4 0 3.8.3 4.2.9.4.6.6 2.7.6 6.2 0 1.6-.1 2.9-.1 3.9l3.7 2.3c.3-1.5.4-3.6.4-6.1 0-4.8-.5-7.8-1.4-8.9zM293.7 386.3l2.8 1.7v-1.7zM358.8 387.8c-.9-1.1-3.3-1.7-7.1-1.7-3.9 0-6.2.6-7.1 1.7-.9 1.1-1.3 4.1-1.3 8.9 0 4.8.4 7.8 1.3 9 .2.2.4.4.6.5l3.9-2.5c-.6-.1-1-.3-1.2-.5-.5-.5-.7-1.8-.7-3.9V394c0-2 .2-3.2.7-3.7.5-.5 1.7-.8 3.5-.8 2.4 0 3.8.3 4.2.9.4.6.6 2.7.6 6.2 0 1.1 0 2-.1 2.8l4-2.5v-.1c0-4.9-.4-7.9-1.3-9zM364.3 387.8c-.8 1-1.2 3.4-1.3 7.3l4-2.5c.1-1.2.3-2 .7-2.3.5-.5 1.7-.8 3.5-.8h.8l4.6-2.9c-1.2-.4-2.9-.6-5.1-.6-3.9.1-6.3.7-7.2 1.8zM612.4 153.7l-3 1.8h3zM449.4 386.3l-6.8 6.3 2.4 2.6 5.5-5.4v10.4l2.3 1.5c.5.3 1.1.6 1.6.7v-16.1h-5zM430.6 386.1c-.9 0-1.8 0-2.5.1L439 393c-.2-2.7-.6-4.4-1.2-5.2-.9-1.1-3.3-1.7-7.2-1.7zM470.1 386.1c-3.9 0-6.2.6-7.1 1.7-.9 1.1-1.4 4.1-1.4 8.9 0 1.7.1 3.2.2 4.4l3.8-2.4v-4.9c0-2 .2-3.2.7-3.7.5-.5 1.7-.8 3.5-.8 2.4 0 3.8.3 4.2.9.2.4.4 1.4.5 2.8l3.7-2.3c-.2-1.5-.6-2.5-1-3.1-.8-.9-3.2-1.5-7.1-1.5zM482.4 388.3l2.9-1.8c-1.3.3-2.1.7-2.6 1.3-.1.1-.2.3-.3.5zM504.3 143.5l1.7-1.7-3-1.9-1.1 1zM509.7 155.5h4v-8.9l-4-2.5zM488.9 166l-6.8 6.4 2.4 2.5 5.4-5.4v6.5l4-2.5V166zM403.8 154c.9 1.1 3.3 1.7 7.1 1.7 3.9 0 6.2-.6 7.1-1.7.9-1.1 1.3-4.1 1.3-9 0-4.8-.5-7.8-1.3-8.9-.1-.2-.3-.3-.5-.4l-3.9 2.4c.6.1 1 .3 1.2.6.4.6.6 2.7.6 6.2s-.2 5.6-.6 6.3c-.4.7-1.7 1.1-3.9 1.1-2.1 0-3.3-.2-3.8-.8-.5-.5-.7-1.8-.7-3.9v-4.9l-2.9 1.8-1-.6v1.2c-.1 4.8.4 7.8 1.3 8.9zM382.7 145.1c0 4.8.5 7.8 1.4 9 .9 1.1 3.3 1.7 7.1 1.7s6.2-.6 7.1-1.7c.9-1.1 1.4-4.1 1.4-9 0-1.1 0-2.1-.1-3l-4.2-2.6c.2 1 .3 2.8.3 5.5 0 3.5-.2 5.6-.6 6.3-.4.7-1.7 1.1-3.9 1.1-2.1 0-3.3-.2-3.8-.8-.5-.5-.7-1.8-.7-3.9v-5.3c0-2 .2-3.2.7-3.7.5-.5 1.7-.8 3.5-.8.8 0 1.5 0 2.1.1l-5.3-3.3c-1.8.3-3 .8-3.6 1.5-.9 1-1.4 4-1.4 8.9zM276.7 155.5v-16.9c-1.3.8-2.6 1.6-4 2.5v14.4h4zM260.1 154c.7-.9 1.1-2.8 1.3-5.7-1.5.9-2.9 1.8-4.4 2.8 0 0 0 .1-.1.2-.2.4-.8.7-1.6.8-1.8 1.1-3.7 2.3-5.5 3.4.9.1 2 .2 3.2.2 3.8 0 6.2-.5 7.1-1.7zM336 155.5v-20.9h-5.1l-6.7 6.3 2.3 2.6 5.5-5.4v17.4zM351.7 138.1v17.4h4v-20.9h-5l-6.8 6.3 2.4 2.6zM292.5 138.1v17.4h4v-20.9h-5.1l-6.7 6.3 2.3 2.6zM470.2 138.1v17.4h4v-20.9h-5l-6.8 6.3 2.4 2.6zM490 138.1v17.4h3.9v-20.9h-5l-6.8 6.3 2.4 2.6zM312.1 126c3.9 0 6.2-.6 7.1-1.7.9-1.1 1.4-4.1 1.4-9 0-1.5-.1-2.9-.1-4-1.2.7-2.5 1.5-3.8 2.4v1.5c0 3.5-.2 5.6-.6 6.3-.4.7-1.7 1.1-3.9 1.1-2.1 0-3.3-.3-3.8-.8-.4-.4-.6-1.2-.7-2.5-1.2.7-2.4 1.5-3.6 2.2.2 1.3.5 2.2.9 2.7.9 1.3 3.3 1.8 7.1 1.8zM331.9 108.4v17.5h4v-21h-5l-6.8 6.3 2.4 2.6zM298.3 125.2c.4-.2.7-.4 1-.6-.4.2-.7.4-1 .6zM438.5 122.6l-5.3 3.3c2.3-.2 3.9-.7 4.5-1.6.3-.3.6-.9.8-1.7zM474.1 125.9v-4.1l-3.9-2.5v6.6zM450.3 126c3.9 0 6.2-.6 7.1-1.7.9-1.1 1.4-4.1 1.4-9 0-.9 0-1.8-.1-2.6-1.3-.3-2.6-.3-3.9 0v2.4c0 3.5-.2 5.6-.6 6.3-.4.7-1.7 1.1-3.9 1.1-2.1 0-3.3-.3-3.8-.8s-.7-1.8-.7-3.8l-3.7 2.3c.2 2 .6 3.3 1.1 4 .9 1.3 3.3 1.8 7.1 1.8zM371.4 126c.9 0 1.6 0 2.4-.1l-10.7-6.7c.2 2.6.6 4.3 1.2 5.1.9 1.2 3.2 1.7 7.1 1.7zM344.5 124.3c.9 1.1 3.3 1.7 7.1 1.7 3.9 0 6.2-.6 7.1-1.7.8-1 1.2-3.3 1.3-6.9l-3.9-2.4v.3c0 3.5-.2 5.6-.6 6.3-.4.7-1.7 1.1-3.9 1.1-2.1 0-3.3-.3-3.8-.8s-.7-1.8-.7-3.9V112.7c0-1.4.1-2.4.4-3.1l-3.5-2.2c-.6 1.5-.9 4.2-.9 8 .1 4.8.5 7.8 1.4 8.9z"/><g><path class="st2" d="M497 311.3l-1.6 1c.7-.2 1.2-.5 1.6-1zM517.3 357.6c-.2-.6-.4-1-.6-1.3-.3-.3-.7-.6-1.2-.9.7.7 1.4 1.4 1.8 2.2zM119.9 277.5c-.2-.1-.3-.2-.5-.3.2.2.3.3.5.3zM119.7 236.8c-.1.1-.3.1-.4.2l-.1.1c.2-.1.4-.2.5-.3zM667.6 313c1.5 0 2.8-.1 3.9-.3l-5.1-3.2c-1.3-.1-2.2-.3-2.5-.7-.2-.2-.4-.6-.5-1.2l-4.1-2.6c.1 3.2.6 5.3 1.3 6.2.7 1.3 3.1 1.8 7 1.8zM660.5 185.5c.9 1.1 3.3 1.7 7.1 1.7s6.2-.6 7.1-1.7c.6-.7 1-2.2 1.2-4.4l-3.8-2.4c-.1 2.1-.3 3.5-.6 4-.4.7-1.7 1.1-3.9 1.1-2.1 0-3.3-.2-3.8-.7-.5-.5-.7-1.8-.7-3.9v-5.3-.7l-3.7-2.3c-.2 1.5-.3 3.4-.3 5.7 0 4.8.5 7.7 1.4 8.9zM580.1 270.9c0 4.8.5 7.8 1.4 9 .9 1.1 3.3 1.7 7.1 1.7s6.2-.6 7.1-1.7c.9-1.1 1.3-4.1 1.3-9 0-1.9-.1-3.5-.2-4.8l-9.4-5.9c-3.2.1-5.2.7-6 1.7-.8 1.2-1.3 4.2-1.3 9zm4-2.7c0-2 .2-3.2.7-3.7.5-.5 1.7-.8 3.5-.8 2.4 0 3.8.3 4.2.9.4.6.6 2.7.6 6.2s-.2 5.6-.7 6.3c-.4.7-1.7 1.1-3.9 1.1-2.1 0-3.3-.2-3.8-.8-.5-.5-.7-1.8-.7-3.9V271l.1-2.8zM679.9 330c1-.7 1.8-1.7 2.4-2.8l-2.7 2.5.3.3zM612.4 281.4v-5.6l-4-2.5v8.1zM556 324.6c-.3-.2-.6-.5-1-.6l1 .6zM666.6 323.3l-6.8 6.4 2.4 2.5 5.5-5.4v10.9l3.9-2.5v-11.9zM627.1 354.8l-6.8 6.3 2.4 2.6 5.4-5.4v4.1l4-2.5v-5.1zM640.7 311.3c.9 1.1 3.3 1.7 7.1 1.7 3.9 0 6.2-.6 7.1-1.7.8-1.1 1.3-3.8 1.3-8l-3.9-2.5v1.4c0 3.5-.2 5.6-.6 6.3-.4.7-1.7 1.1-3.9 1.1-2.1 0-3.3-.2-3.8-.7-.5-.5-.7-1.8-.7-3.9V299.7c0-2 .2-3.2.7-3.7.1-.1.1-.1.2-.1l-3.6-2.3c-.9 1.2-1.3 4.1-1.3 8.9 0 4.7.5 7.7 1.4 8.8zM682.7 186.8c-.6-1.3-1.6-2.4-2.8-3.2l-.5-.3c.2 1 .5 1.8.9 2.2.4.6 1.2 1 2.4 1.3zM667.6 197.3c-3.9 0-6.2.6-7.1 1.7-.9 1.1-1.3 4.1-1.3 8.9v2l3.9-2.4v-2.3c0-2 .2-3.2.7-3.7.5-.5 1.7-.8 3.5-.8 2.4 0 3.8.3 4.2.9.1.1.1.3.2.5l3.5-2.2c-.1-.4-.3-.7-.5-.9-.9-1.1-3.3-1.7-7.1-1.7zM640.7 167.6c-.9 1.1-1.4 4.1-1.4 8.9 0 4.8.5 7.8 1.4 9 .9 1.1 3.3 1.7 7.1 1.7s6.2-.6 7.1-1.7c.9-1.1 1.4-4.1 1.4-9 0-4.1-.3-6.8-1-8.3l-3.3-2.1c-1.1-.2-2.5-.3-4.2-.3-3.8.1-6.2.6-7.1 1.8zm11.7 8.8c0 3.5-.2 5.6-.6 6.3-.4.7-1.7 1.1-3.9 1.1-2.1 0-3.3-.2-3.8-.7-.5-.5-.7-1.8-.7-3.9v-5.3c0-2 .2-3.2.7-3.7.5-.5 1.7-.8 3.5-.8 2.4 0 3.8.3 4.2.9.4.5.6 2.6.6 6.1zM608.4 228.8c-3.8 0-6.2.6-7.1 1.7-.9 1.1-1.3 4.1-1.3 8.9 0 3.2.2 5.6.6 7.2l3.5-2.2c-.1-.6-.2-1.4-.2-2.4v-5.2c0-2 .2-3.2.7-3.7.5-.5 1.7-.8 3.5-.8 2.4 0 3.8.3 4.2.9.4.6.6 2.5.6 5.7l3.9-2.4c-.2-3.1-.6-5.1-1.3-5.9-.9-1.2-3.3-1.8-7.1-1.8zM623.8 232l5-3h-1.7zM655 199c-.9-1.1-3.3-1.7-7.1-1.7s-6.2.6-7.1 1.7c-.9 1.1-1.3 4.1-1.3 8.9 0 4.8.4 7.8 1.3 9 .7.9 2.3 1.4 4.7 1.6l10.7-6.7c.1-1.1.1-2.4.1-3.9 0-4.8-.4-7.7-1.3-8.9zm-3.3 15.2c-.4.7-1.7 1.1-3.9 1.1-2.1 0-3.3-.2-3.8-.8-.5-.5-.7-1.8-.7-3.9v-5.4c0-2 .2-3.2.7-3.7.5-.5 1.7-.8 3.5-.8 2.4 0 3.8.3 4.2.9.4.6.6 2.7.6 6.2.1 3.6-.1 5.7-.6 6.4zM343.9 203.8l2.3 2.6 5.5-5.4v17.5h4v-21h-5.1zM351.6 165.9c-3.8 0-6.2.6-7.1 1.7-.9 1.1-1.4 4.1-1.4 8.9 0 4.8.5 7.8 1.4 9 .9 1.1 3.3 1.7 7.1 1.7 3.9 0 6.2-.6 7.1-1.7.9-1.1 1.4-4.1 1.4-9 0-4.8-.5-7.8-1.4-8.9-.8-1.2-3.2-1.7-7.1-1.7zm3.9 16.8c-.4.7-1.7 1.1-3.9 1.1-2.1 0-3.3-.2-3.8-.7-.5-.5-.7-1.8-.7-3.9v-5.3c0-2 .2-3.2.7-3.7.5-.5 1.7-.8 3.5-.8 2.4 0 3.8.3 4.2.9.4.6.6 2.7.6 6.2.1 3.4-.1 5.5-.6 6.2zM351.6 260.3c-3.8 0-6.2.6-7.1 1.7-.9 1.1-1.4 4.1-1.4 8.9 0 4.8.5 7.8 1.4 9 .9 1.1 3.3 1.7 7.1 1.7 3.9 0 6.2-.6 7.1-1.7.9-1.1 1.4-4.1 1.4-9 0-4.8-.5-7.8-1.4-8.9-.8-1.2-3.2-1.7-7.1-1.7zm3.9 16.8c-.4.7-1.7 1.1-3.9 1.1-2.1 0-3.3-.2-3.8-.8-.5-.5-.7-1.8-.7-3.9v-5.3c0-2 .2-3.2.7-3.7.5-.5 1.7-.8 3.5-.8 2.4 0 3.8.3 4.2.9.4.6.6 2.7.6 6.2.1 3.5-.1 5.6-.6 6.3zM355.7 249.9V229h-5l-6.8 6.3 2.4 2.5 5.4-5.4v17.5zM371.4 169.5V187h4v-21h-5l-6.8 6.4 2.4 2.5zM331.9 197.3c-3.9 0-6.2.6-7.1 1.7-.9 1.1-1.4 4.1-1.4 8.9 0 4.8.4 7.8 1.4 9 .9 1.1 3.3 1.7 7.1 1.7 3.9 0 6.2-.6 7.1-1.7.9-1.1 1.4-4.1 1.4-9 0-4.8-.4-7.8-1.4-8.9-.9-1.1-3.3-1.7-7.1-1.7zm3.9 16.9c-.4.7-1.7 1.1-3.9 1.1-2.1 0-3.3-.2-3.8-.8-.5-.5-.7-1.8-.7-3.9v-5.4c0-2 .2-3.2.7-3.7.5-.5 1.7-.8 3.5-.8 2.4 0 3.8.3 4.2.9.4.6.6 2.7.6 6.2 0 3.6-.2 5.7-.6 6.4zM351.6 291.7c-3.8 0-6.2.6-7.1 1.7-.9 1.1-1.4 4.1-1.4 8.9 0 4.8.4 7.8 1.4 9 .9 1.1 3.3 1.7 7.1 1.7 3.9 0 6.2-.6 7.1-1.7.9-1.1 1.4-4.1 1.4-9 0-4.8-.5-7.8-1.4-8.9-.9-1.1-3.2-1.7-7.1-1.7zm3.9 16.8c-.4.7-1.7 1.1-3.9 1.1-2.1 0-3.3-.2-3.8-.7-.5-.5-.7-1.8-.7-3.9V299.7c0-2 .2-3.2.7-3.7.5-.5 1.7-.8 3.5-.8 2.4 0 3.8.3 4.2.9.4.6.6 2.7.6 6.2.1 3.4-.1 5.5-.6 6.2zM375.4 312.9v-21h-5l-6.8 6.3 2.4 2.6 5.4-5.4v17.5zM331.9 165.9c-3.8 0-6.2.6-7.1 1.7-.9 1.1-1.4 4.1-1.4 8.9 0 4.8.5 7.8 1.4 9 .9 1.1 3.3 1.7 7.1 1.7 3.9 0 6.2-.6 7.1-1.7.9-1.1 1.4-4.1 1.4-9 0-4.8-.4-7.8-1.4-8.9-.9-1.2-3.3-1.7-7.1-1.7zm3.9 16.8c-.4.7-1.7 1.1-3.9 1.1-2.1 0-3.3-.2-3.8-.7-.5-.5-.7-1.8-.7-3.9v-5.3c0-2 .2-3.2.7-3.7.5-.5 1.7-.8 3.5-.8 2.4 0 3.8.3 4.2.9.4.6.6 2.7.6 6.2 0 3.4-.2 5.5-.6 6.2zM343.9 361.1l2.3 2.6 5.5-5.4v17.5h4v-21h-5.1zM355.6 344.3v-21h-5l-6.8 6.4 2.4 2.5 5.5-5.4v17.5zM371.4 354.6c-3.9 0-6.2.6-7.1 1.7-.9 1.1-1.4 4.1-1.4 8.9 0 4.8.4 7.8 1.4 9 .9 1.1 3.3 1.7 7.1 1.7 3.9 0 6.2-.6 7.1-1.7.9-1.1 1.3-4.1 1.3-9 0-4.8-.4-7.8-1.3-8.9-.9-1.1-3.3-1.7-7.1-1.7zm3.9 16.9c-.4.7-1.7 1.1-3.9 1.1-2.1 0-3.3-.3-3.8-.8s-.7-1.8-.7-3.9V362.6c0-2 .2-3.2.7-3.7.5-.5 1.7-.8 3.5-.8 2.4 0 3.8.3 4.2.9.4.6.6 2.7.6 6.2s-.2 5.6-.6 6.3zM395.2 218.5v-21h-5.1l-6.7 6.3 2.3 2.6 5.5-5.4v17.5zM383.4 298.2l2.3 2.6 5.5-5.4v17.5h4v-21h-5.1zM383.3 329.7l2.4 2.5 5.5-5.4v17.5h3.9v-21h-5zM383.4 266.7l2.3 2.6 5.5-5.4v17.5h4v-21h-5.1zM391.2 228.8c-3.9 0-6.2.6-7.1 1.7-.9 1.1-1.3 4.1-1.3 8.9 0 4.8.4 7.8 1.3 9 .9 1.1 3.3 1.7 7.1 1.7s6.2-.6 7.1-1.7c.9-1.1 1.4-4.1 1.4-9 0-4.8-.5-7.8-1.4-8.9-.9-1.1-3.3-1.7-7.1-1.7zm3.9 16.8c-.4.7-1.7 1.1-3.9 1.1-2.1 0-3.3-.3-3.8-.8s-.7-1.8-.7-3.9v-5.2c0-2 .2-3.2.7-3.7.5-.5 1.7-.8 3.5-.8 2.4 0 3.8.3 4.2.9.4.6.6 2.7.6 6.2 0 3.4-.2 5.5-.6 6.2zM391.1 187.2c3.8 0 6.2-.6 7.1-1.7.9-1.1 1.4-4.1 1.4-9 0-4.8-.4-7.8-1.4-8.9-.9-1.1-3.3-1.7-7.1-1.7-3.9 0-6.2.6-7.1 1.7-.9 1.1-1.4 4.1-1.4 8.9 0 4.8.5 7.8 1.4 9 .9 1.1 3.3 1.7 7.1 1.7zm-4.5-13.4c0-2 .2-3.2.7-3.7.5-.5 1.7-.8 3.5-.8 2.4 0 3.8.3 4.2.9.4.6.6 2.7.6 6.2s-.2 5.6-.6 6.3c-.4.7-1.7 1.1-3.9 1.1-2.1 0-3.3-.2-3.8-.7-.5-.5-.7-1.8-.7-3.9v-5.4zM364.2 342.8c.9 1.1 3.3 1.7 7.1 1.7 3.9 0 6.2-.6 7.1-1.7.9-1.1 1.4-4.1 1.4-9 0-4.8-.5-7.8-1.4-8.9-.9-1.1-3.3-1.7-7.1-1.7-3.9 0-6.2.6-7.1 1.7-.9 1.1-1.4 4.1-1.4 8.9.1 4.9.5 7.8 1.4 9zm2.6-11.7c0-2 .2-3.2.7-3.7.5-.5 1.6-.8 3.5-.8 2.4 0 3.8.3 4.2.9.4.6.6 2.7.6 6.2s-.2 5.6-.6 6.3c-.4.7-1.7 1.1-3.9 1.1-2.1 0-3.3-.3-3.8-.8s-.7-1.8-.7-3.9v-5.3zM326.5 269.3l5.4-5.4v17.5h4v-21h-5l-6.8 6.3zM371.4 260.3c-3.9 0-6.2.6-7.1 1.7-.9 1.1-1.4 4.1-1.4 8.9 0 4.8.4 7.8 1.4 9 .9 1.1 3.3 1.7 7.1 1.7 3.9 0 6.2-.6 7.1-1.7.9-1.1 1.3-4.1 1.3-9 0-4.8-.4-7.8-1.3-8.9-.9-1.2-3.3-1.7-7.1-1.7zm3.9 16.8c-.4.7-1.7 1.1-3.9 1.1-2.1 0-3.3-.2-3.8-.8-.5-.5-.7-1.8-.7-3.9v-5.3c0-2 .2-3.2.7-3.7.5-.5 1.7-.8 3.5-.8 2.4 0 3.8.3 4.2.9.4.6.6 2.7.6 6.2s-.2 5.6-.6 6.3zM371.4 197.3c-3.9 0-6.2.6-7.1 1.7-.9 1.1-1.4 4.1-1.4 8.9 0 4.8.4 7.8 1.4 9 .9 1.1 3.3 1.7 7.1 1.7 3.9 0 6.2-.6 7.1-1.7.9-1.1 1.3-4.1 1.3-9 0-4.8-.4-7.8-1.3-8.9-.9-1.1-3.3-1.7-7.1-1.7zm3.9 16.9c-.4.7-1.7 1.1-3.9 1.1-2.1 0-3.3-.2-3.8-.8-.5-.5-.7-1.8-.7-3.9v-5.4c0-2 .2-3.2.7-3.7.5-.5 1.7-.8 3.5-.8 2.4 0 3.8.3 4.2.9.4.6.6 2.7.6 6.2 0 3.6-.2 5.7-.6 6.4zM375.4 249.9V229h-5l-6.7 6.3 2.3 2.5 5.5-5.4v17.5zM335.9 249.9V229h-5l-6.8 6.3 2.4 2.5 5.5-5.4v17.5zM292.4 228.8c-3.9 0-6.2.6-7.1 1.7-.9 1.1-1.4 4.1-1.4 8.9 0 4.8.5 7.8 1.4 9 .9 1.1 3.3 1.7 7.1 1.7s6.2-.6 7.1-1.7c.9-1.1 1.4-4.1 1.4-9 0-4.8-.5-7.8-1.4-8.9-.9-1.1-3.2-1.7-7.1-1.7zm3.9 16.8c-.4.7-1.7 1.1-3.9 1.1-2.1 0-3.3-.3-3.8-.8s-.7-1.8-.7-3.9v-5.2c0-2 .2-3.2.7-3.7.5-.5 1.7-.8 3.5-.8 2.4 0 3.8.3 4.2.9.4.6.6 2.7.6 6.2 0 3.4-.2 5.5-.6 6.2zM292.4 354.6c-3.9 0-6.2.6-7.1 1.7-.9 1.1-1.4 4.1-1.4 8.9 0 4.8.4 7.8 1.4 9 .9 1.1 3.3 1.7 7.1 1.7s6.2-.6 7.1-1.7c.9-1.1 1.4-4.1 1.4-9 0-4.8-.4-7.8-1.4-8.9-.9-1.1-3.3-1.7-7.1-1.7zm3.9 16.9c-.4.7-1.7 1.1-3.9 1.1-2.1 0-3.3-.3-3.8-.8s-.7-1.8-.7-3.9V362.6c0-2 .2-3.2.7-3.7.5-.5 1.7-.8 3.5-.8 2.4 0 3.8.3 4.2.9.4.6.6 2.7.6 6.2s-.2 5.6-.6 6.3zM292.4 165.9c-3.9 0-6.2.6-7.1 1.7-.9 1.1-1.4 4.1-1.4 8.9 0 4.8.5 7.8 1.4 9 .9 1.1 3.3 1.7 7.1 1.7s6.2-.6 7.1-1.7c.9-1.1 1.4-4.1 1.4-9 0-4.8-.5-7.8-1.4-8.9-.9-1.2-3.2-1.7-7.1-1.7zm3.9 16.8c-.4.7-1.7 1.1-3.9 1.1-2.1 0-3.3-.2-3.8-.7-.5-.5-.7-1.8-.7-3.9v-5.3c0-2 .2-3.2.7-3.7.5-.5 1.7-.8 3.5-.8 2.4 0 3.8.3 4.2.9.4.6.6 2.7.6 6.2 0 3.4-.2 5.5-.6 6.2zM284.6 266.7l2.4 2.6 5.4-5.4v17.5h4v-21h-5zM292.4 218.6c3.8 0 6.2-.6 7.1-1.7.9-1.1 1.4-4.1 1.4-9 0-4.8-.4-7.8-1.4-8.9-.9-1.1-3.3-1.7-7.1-1.7-3.9 0-6.2.6-7.1 1.7-.9 1.1-1.4 4.1-1.4 8.9 0 4.8.4 7.8 1.4 9 .9 1.2 3.2 1.7 7.1 1.7zm-4.5-13.4c0-2 .2-3.2.7-3.7.5-.5 1.7-.8 3.5-.8 2.4 0 3.8.3 4.2.9.4.6.6 2.7.6 6.2s-.2 5.6-.6 6.3c-.4.7-1.7 1.1-3.9 1.1-2.1 0-3.3-.2-3.8-.8-.5-.5-.7-1.8-.7-3.9V205.2zM272.7 228.8c-3.8 0-6.2.6-7.1 1.7-.9 1.1-1.4 4.1-1.4 8.9 0 4.8.5 7.8 1.4 9 .9 1.1 3.3 1.7 7.1 1.7s6.2-.6 7.1-1.7c.9-1.1 1.4-4.1 1.4-9 0-4.8-.5-7.8-1.4-8.9-.9-1.1-3.3-1.7-7.1-1.7zm3.9 16.8c-.4.7-1.7 1.1-3.9 1.1-2.1 0-3.3-.3-3.8-.8s-.7-1.8-.7-3.9v-5.2c0-2 .2-3.2.7-3.7.5-.5 1.7-.8 3.5-.8 2.4 0 3.8.3 4.2.9.4.6.6 2.7.6 6.2 0 3.4-.2 5.5-.6 6.2zM272.6 291.7c-3.9 0-6.2.6-7.1 1.7-.9 1.1-1.4 4.1-1.4 8.9 0 4.8.4 7.8 1.4 9 .9 1.1 3.3 1.7 7.1 1.7s6.2-.6 7.1-1.7c.9-1.1 1.4-4.1 1.4-9 0-4.8-.4-7.8-1.4-8.9-.8-1.1-3.2-1.7-7.1-1.7zm4 16.8c-.4.7-1.7 1.1-3.9 1.1-2.1 0-3.3-.2-3.8-.7-.5-.5-.7-1.8-.7-3.9V299.7c0-2 .2-3.2.7-3.7.5-.5 1.7-.8 3.5-.8 2.4 0 3.8.3 4.2.9.4.6.6 2.7.6 6.2 0 3.4-.2 5.5-.6 6.2zM272.6 323.2c-3.8 0-6.2.6-7.1 1.7-.9 1.1-1.4 4.1-1.4 8.9 0 4.8.5 7.8 1.4 9 .9 1.1 3.3 1.7 7.1 1.7s6.2-.6 7.1-1.7c.9-1.1 1.4-4.1 1.4-9 0-4.8-.5-7.8-1.4-8.9-.8-1.2-3.2-1.7-7.1-1.7zm3.9 16.8c-.4.7-1.7 1.1-3.9 1.1-2.1 0-3.3-.3-3.8-.8s-.7-1.8-.7-3.9v-5.3c0-2 .2-3.2.7-3.7.5-.5 1.7-.8 3.5-.8 2.4 0 3.8.3 4.2.9.4.6.6 2.7.6 6.2.1 3.5-.1 5.6-.6 6.3zM296.4 312.9v-21h-5l-6.8 6.3 2.4 2.6 5.4-5.4v17.5zM292.4 344.5c3.8 0 6.2-.6 7.1-1.7.9-1.1 1.4-4.1 1.4-9 0-4.8-.4-7.8-1.4-8.9-.9-1.1-3.3-1.7-7.1-1.7-3.9 0-6.2.6-7.1 1.7-.9 1.1-1.4 4.1-1.4 8.9 0 4.8.5 7.8 1.4 9 .8 1.1 3.2 1.7 7.1 1.7zm-4.5-13.4c0-2 .2-3.2.7-3.7.5-.5 1.7-.8 3.5-.8 2.4 0 3.8.3 4.2.9.4.6.6 2.7.6 6.2s-.2 5.6-.6 6.3c-.4.7-1.7 1.1-3.9 1.1-2.1 0-3.3-.3-3.8-.8s-.7-1.8-.7-3.9v-5.3zM316.2 344.3v-21h-5.1l-6.7 6.4 2.3 2.5 5.5-5.4v17.5zM306.7 269.3l5.5-5.4v17.5h4v-21h-5.1l-6.7 6.3zM331.9 354.6c-3.9 0-6.2.6-7.1 1.7-.9 1.1-1.4 4.1-1.4 8.9 0 4.8.4 7.8 1.4 9 .9 1.1 3.3 1.7 7.1 1.7 3.9 0 6.2-.6 7.1-1.7.9-1.1 1.4-4.1 1.4-9 0-4.8-.4-7.8-1.4-8.9-.9-1.1-3.3-1.7-7.1-1.7zm3.9 16.9c-.4.7-1.7 1.1-3.9 1.1-2.1 0-3.3-.3-3.8-.8s-.7-1.8-.7-3.9V362.6c0-2 .2-3.2.7-3.7.5-.5 1.7-.8 3.5-.8 2.4 0 3.8.3 4.2.9.4.6.6 2.7.6 6.2s-.2 5.6-.6 6.3zM331.9 344.5c3.9 0 6.2-.6 7.1-1.7.9-1.1 1.4-4.1 1.4-9 0-4.8-.5-7.8-1.4-8.9-.9-1.1-3.3-1.7-7.1-1.7s-6.2.6-7.1 1.7c-.9 1.1-1.4 4.1-1.4 8.9 0 4.8.5 7.8 1.4 9 .8 1.1 3.2 1.7 7.1 1.7zm-4.5-13.4c0-2 .2-3.2.7-3.7.5-.5 1.7-.8 3.5-.8 2.4 0 3.8.3 4.2.9.4.6.6 2.7.6 6.2s-.2 5.6-.6 6.3c-.4.7-1.7 1.1-3.9 1.1-2.1 0-3.3-.3-3.8-.8s-.7-1.8-.7-3.9v-5.3zM304.4 361.1l2.3 2.6 5.5-5.4v17.5h4v-21h-5.1zM331.9 291.7c-3.9 0-6.2.6-7.1 1.7-.9 1.1-1.4 4.1-1.4 8.9 0 4.8.4 7.8 1.4 9 .9 1.1 3.3 1.7 7.1 1.7 3.9 0 6.2-.6 7.1-1.7.9-1.1 1.4-4.1 1.4-9 0-4.8-.4-7.8-1.4-8.9-.9-1.1-3.3-1.7-7.1-1.7zm3.9 16.8c-.4.7-1.7 1.1-3.9 1.1-2.1 0-3.3-.2-3.8-.7-.5-.5-.7-1.8-.7-3.9V299.7c0-2 .2-3.2.7-3.7.5-.5 1.7-.8 3.5-.8 2.4 0 3.8.3 4.2.9.4.6.6 2.7.6 6.2 0 3.4-.2 5.5-.6 6.2zM316.2 249.9V229h-5l-6.8 6.3 2.3 2.5 5.5-5.4v17.5zM312.1 291.7c-3.9 0-6.2.6-7.1 1.7-.9 1.1-1.4 4.1-1.4 8.9 0 4.8.5 7.8 1.4 9 .9 1.1 3.3 1.7 7.1 1.7 3.9 0 6.2-.6 7.1-1.7.9-1.1 1.4-4.1 1.4-9 0-4.8-.5-7.8-1.4-8.9-.8-1.1-3.2-1.7-7.1-1.7zm3.9 16.8c-.4.7-1.7 1.1-3.9 1.1-2.1 0-3.3-.2-3.8-.7-.5-.5-.7-1.8-.7-3.9V299.7c0-2 .2-3.2.7-3.7.5-.5 1.7-.8 3.5-.8 2.4 0 3.8.3 4.2.9.4.6.6 2.7.6 6.2.1 3.4-.1 5.5-.6 6.2zM410.9 169.5V187h4v-21h-5l-6.8 6.4 2.4 2.5zM306.7 206.4l5.5-5.4v17.5h4v-21h-5.1l-6.7 6.3zM316.2 187v-21h-5l-6.8 6.4 2.3 2.5 5.5-5.4V187zM521.6 235.3l2.4 2.5 5.5-5.4v17.5h3.9V229h-5zM521.6 266.7l2.3 2.6 5.5-5.4v17.5h4v-21h-5zM549.1 218.6c3.8 0 6.2-.6 7.1-1.7.9-1.1 1.3-4.1 1.3-9 0-4.8-.5-7.8-1.3-8.9-.9-1.1-3.3-1.7-7.1-1.7-3.9 0-6.2.6-7.1 1.7-.9 1.1-1.3 4.1-1.3 8.9 0 4.8.4 7.8 1.3 9 .9 1.2 3.2 1.7 7.1 1.7zm-4.5-13.4c0-2 .2-3.2.7-3.7.5-.5 1.7-.8 3.5-.8 2.4 0 3.8.3 4.2.9.4.6.6 2.7.6 6.2s-.2 5.6-.6 6.3c-.4.7-1.7 1.1-3.9 1.1-2.1 0-3.3-.2-3.8-.8-.5-.5-.7-1.8-.7-3.9V205.2zM568.9 201v17.5h4v-21h-5l-6.8 6.3 2.3 2.6zM509.6 260.3c-3.9 0-6.2.6-7.1 1.7-.9 1.1-1.4 4.1-1.4 8.9 0 4.8.5 7.8 1.4 9 .9 1.1 3.3 1.7 7.1 1.7s6.2-.6 7.1-1.7c.9-1.1 1.3-4.1 1.3-9 0-4.8-.4-7.8-1.3-8.9-.9-1.2-3.2-1.7-7.1-1.7zm3.9 16.8c-.4.7-1.7 1.1-3.9 1.1-2.1 0-3.3-.2-3.8-.8-.5-.5-.7-1.8-.7-3.9v-5.3c0-2 .2-3.2.7-3.7.5-.5 1.7-.8 3.5-.8 2.4 0 3.8.3 4.2.9.4.6.6 2.7.6 6.2s-.2 5.6-.6 6.3zM541.3 298.2l2.4 2.6 5.4-5.4v17.5h4v-21h-5zM470.2 228.8c-3.8 0-6.2.6-7.1 1.7-.9 1.1-1.3 4.1-1.3 8.9 0 4.8.4 7.8 1.3 9 .9 1.1 3.3 1.7 7.1 1.7 3.9 0 6.2-.6 7.1-1.7.9-1.1 1.4-4.1 1.4-9 0-4.8-.5-7.8-1.4-8.9-.9-1.1-3.3-1.7-7.1-1.7zm3.9 16.8c-.4.7-1.7 1.1-3.9 1.1-2.1 0-3.3-.3-3.8-.8s-.7-1.8-.7-3.9v-5.2c0-2 .2-3.2.7-3.7.5-.5 1.7-.8 3.5-.8 2.4 0 3.8.3 4.2.9.4.6.6 2.7.6 6.2 0 3.4-.2 5.5-.6 6.2zM462.3 266.7l2.4 2.6 5.5-5.4v17.5h3.9v-21h-5zM509.7 232.4v17.5h4V229h-5l-6.8 6.3 2.4 2.5zM490 232.4v17.5h3.9V229h-5l-6.8 6.3 2.4 2.5zM489.9 260.3c-3.9 0-6.2.6-7.1 1.7-.9 1.1-1.4 4.1-1.4 8.9 0 4.8.5 7.8 1.4 9 .9 1.1 3.3 1.7 7.1 1.7s6.2-.6 7.1-1.7c.9-1.1 1.4-4.1 1.4-9 0-4.8-.5-7.8-1.4-8.9-.9-1.2-3.3-1.7-7.1-1.7zm3.9 16.8c-.4.7-1.7 1.1-3.9 1.1-2.1 0-3.3-.2-3.8-.8-.5-.5-.7-1.8-.7-3.9v-5.3c0-2 .2-3.2.7-3.7.5-.5 1.7-.8 3.5-.8 2.4 0 3.8.3 4.2.9.4.6.6 2.7.6 6.2s-.2 5.6-.6 6.3zM462.3 298.2l2.4 2.6 5.5-5.4v17.5h3.9v-21h-5zM608.3 291.7c-3.8 0-6.2.6-7.1 1.7-.9 1.1-1.3 4.1-1.3 8.9 0 4.8.4 7.8 1.3 9 .9 1.1 3.3 1.7 7.1 1.7 3.9 0 6.2-.6 7.1-1.7.9-1.1 1.3-4.1 1.3-9 0-4.8-.5-7.8-1.3-8.9-.8-1.1-3.2-1.7-7.1-1.7zm3.9 16.8c-.4.7-1.7 1.1-3.9 1.1-2.1 0-3.3-.2-3.8-.7-.5-.5-.7-1.8-.7-3.9V299.7c0-2 .2-3.2.7-3.7.5-.5 1.6-.8 3.5-.8 2.4 0 3.8.3 4.2.9.4.6.6 2.7.6 6.2.1 3.4-.1 5.5-.6 6.2zM549.1 260.3c-3.9 0-6.2.6-7.1 1.7-.9 1.1-1.3 4.1-1.3 8.9 0 4.8.4 7.8 1.3 9 .9 1.1 3.3 1.7 7.1 1.7s6.2-.6 7.1-1.7c.9-1.1 1.3-4.1 1.3-9 0-4.8-.5-7.8-1.3-8.9-.9-1.2-3.3-1.7-7.1-1.7zm3.9 16.8c-.4.7-1.7 1.1-3.9 1.1-2.1 0-3.3-.2-3.8-.8-.5-.5-.7-1.8-.7-3.9v-5.3c0-2 .2-3.2.7-3.7.5-.5 1.7-.8 3.5-.8 2.4 0 3.8.3 4.2.9.4.6.6 2.7.6 6.2s-.2 5.6-.6 6.3zM628.1 344.5c3.9 0 6.2-.6 7.1-1.7.9-1.1 1.4-4.1 1.4-9 0-4.8-.4-7.8-1.4-8.9-.9-1.1-3.3-1.7-7.1-1.7s-6.2.6-7.1 1.7c-.9 1.1-1.3 4.1-1.3 8.9 0 4.8.4 7.8 1.3 9 .9 1.1 3.3 1.7 7.1 1.7zm-4.5-13.4c0-2 .2-3.2.7-3.7.5-.5 1.7-.8 3.5-.8 2.4 0 3.8.3 4.2.9.4.6.6 2.7.6 6.2s-.2 5.6-.6 6.3c-.4.7-1.7 1.1-3.9 1.1-2.1 0-3.3-.3-3.8-.8s-.7-1.8-.7-3.9v-5.3zM628.1 295.4v17.5h4v-21h-5l-6.8 6.3 2.4 2.6zM580.8 329.7l2.4 2.5 5.5-5.4v17.5h3.9v-21h-5zM600.6 329.7l2.4 2.5 5.4-5.4v17.5h4v-21h-5zM549.2 228.8c-3.8 0-6.2.6-7.1 1.7-.9 1.1-1.4 4.1-1.4 8.9 0 4.8.5 7.8 1.4 9 .9 1.1 3.3 1.7 7.1 1.7 3.9 0 6.2-.6 7.1-1.7.9-1.1 1.4-4.1 1.4-9 0-4.8-.5-7.8-1.4-8.9-.9-1.1-3.3-1.7-7.1-1.7zm3.9 16.8c-.4.7-1.7 1.1-3.9 1.1-2.1 0-3.3-.3-3.8-.8s-.7-1.8-.7-3.9v-5.2c0-2 .2-3.2.7-3.7.5-.5 1.7-.8 3.5-.8 2.4 0 3.8.3 4.2.9.4.6.6 2.7.6 6.2 0 3.4-.2 5.5-.6 6.2zM568.8 291.7c-3.8 0-6.2.6-7.1 1.7-.9 1.1-1.3 4.1-1.3 8.9 0 4.8.4 7.8 1.3 9 .9 1.1 3.3 1.7 7.1 1.7 3.9 0 6.2-.6 7.1-1.7.9-1.1 1.3-4.1 1.3-9 0-4.8-.4-7.8-1.3-8.9-.8-1.1-3.2-1.7-7.1-1.7zm3.9 16.8c-.4.7-1.7 1.1-3.9 1.1-2.1 0-3.3-.2-3.8-.7-.5-.5-.7-1.8-.7-3.9V299.7c0-2 .2-3.2.7-3.7.5-.5 1.7-.8 3.5-.8 2.4 0 3.8.3 4.2.9.4.6.6 2.7.6 6.2.1 3.4-.1 5.5-.6 6.2zM568.9 228.8c-3.9 0-6.2.6-7.1 1.7-.9 1.1-1.4 4.1-1.4 8.9 0 4.8.5 7.8 1.4 9 .9 1.1 3.3 1.7 7.1 1.7s6.2-.6 7.1-1.7c.9-1.1 1.4-4.1 1.4-9 0-4.8-.5-7.8-1.4-8.9-.9-1.1-3.3-1.7-7.1-1.7zm3.9 16.8c-.4.7-1.7 1.1-3.9 1.1-2.1 0-3.3-.3-3.8-.8s-.7-1.8-.7-3.9v-5.2c0-2 .2-3.2.7-3.7.5-.5 1.7-.8 3.5-.8 2.4 0 3.8.3 4.2.9.4.6.6 2.7.6 6.2 0 3.4-.2 5.5-.6 6.2zM588.6 295.4v17.5h4v-21h-5l-6.8 6.3 2.4 2.6zM572.9 281.4v-21h-5l-6.8 6.3 2.3 2.6 5.5-5.4v17.5zM489.9 358.3v17.5h4v-21h-5l-6.8 6.3 2.4 2.6zM430.6 291.7c-3.8 0-6.2.6-7.1 1.7-.9 1.1-1.4 4.1-1.4 8.9 0 4.8.5 7.8 1.4 9 .9 1.1 3.3 1.7 7.1 1.7 3.9 0 6.2-.6 7.1-1.7.9-1.1 1.3-4.1 1.3-9 0-4.8-.4-7.8-1.3-8.9-.9-1.1-3.2-1.7-7.1-1.7zm3.9 16.8c-.4.7-1.7 1.1-3.9 1.1-2.1 0-3.3-.2-3.8-.7-.5-.5-.7-1.8-.7-3.9V299.7c0-2 .2-3.2.7-3.7.5-.5 1.7-.8 3.5-.8 2.4 0 3.8.3 4.2.9.4.6.6 2.7.6 6.2.1 3.4-.2 5.5-.6 6.2zM434.7 249.9V229h-5l-6.8 6.3 2.4 2.5 5.4-5.4v17.5zM425.2 269.3l5.5-5.4v17.5h4v-21h-5.1l-6.7 6.3zM430.6 323.2c-3.8 0-6.2.6-7.1 1.7-.9 1.1-1.4 4.1-1.4 8.9 0 4.8.5 7.8 1.4 9 .9 1.1 3.3 1.7 7.1 1.7 3.9 0 6.2-.6 7.1-1.7.9-1.1 1.3-4.1 1.3-9 0-4.8-.4-7.8-1.3-8.9-.9-1.2-3.2-1.7-7.1-1.7zm3.9 16.8c-.4.7-1.7 1.1-3.9 1.1-2.1 0-3.3-.3-3.8-.8s-.7-1.8-.7-3.9v-5.3c0-2 .2-3.2.7-3.7.5-.5 1.7-.8 3.5-.8 2.4 0 3.8.3 4.2.9.4.6.6 2.7.6 6.2.1 3.5-.2 5.6-.6 6.3zM422.9 203.8l2.3 2.6 5.5-5.4v17.5h4v-21h-5.1zM430.6 165.9c-3.9 0-6.2.6-7.1 1.7-.9 1.1-1.4 4.1-1.4 8.9 0 4.8.4 7.8 1.4 9 .9 1.1 3.3 1.7 7.1 1.7 3.9 0 6.2-.6 7.1-1.7.9-1.1 1.4-4.1 1.4-9 0-4.8-.4-7.8-1.4-8.9-.8-1.2-3.2-1.7-7.1-1.7zm3.9 16.8c-.4.7-1.7 1.1-3.9 1.1-2.1 0-3.3-.2-3.8-.7-.5-.5-.7-1.8-.7-3.9v-5.3c0-2 .2-3.2.7-3.7.5-.5 1.7-.8 3.5-.8 2.4 0 3.8.3 4.2.9.4.6.6 2.7.6 6.2.1 3.4-.1 5.5-.6 6.2zM410.9 291.7c-3.8 0-6.2.6-7.1 1.7-.9 1.1-1.4 4.1-1.4 8.9 0 4.8.4 7.8 1.4 9 .9 1.1 3.3 1.7 7.1 1.7s6.2-.6 7.1-1.7c.9-1.1 1.4-4.1 1.4-9 0-4.8-.5-7.8-1.4-8.9-.9-1.1-3.3-1.7-7.1-1.7zm3.9 16.8c-.4.7-1.7 1.1-3.9 1.1-2.1 0-3.3-.2-3.8-.7-.5-.5-.7-1.8-.7-3.9V299.7c0-2 .2-3.2.7-3.7.5-.5 1.7-.8 3.5-.8 2.4 0 3.8.3 4.2.9.4.6.6 2.7.6 6.2 0 3.4-.2 5.5-.6 6.2zM403.1 329.7l2.4 2.5 5.4-5.4v17.5h4v-21h-5zM410.9 260.3c-3.8 0-6.2.6-7.1 1.7-.9 1.1-1.4 4.1-1.4 8.9 0 4.8.4 7.8 1.4 9 .9 1.1 3.3 1.7 7.1 1.7s6.2-.6 7.1-1.7c.9-1.1 1.4-4.1 1.4-9 0-4.8-.5-7.8-1.4-8.9-.9-1.2-3.3-1.7-7.1-1.7zm3.9 16.8c-.4.7-1.7 1.1-3.9 1.1-2.1 0-3.3-.2-3.8-.8-.5-.5-.7-1.8-.7-3.9v-5.3c0-2 .2-3.2.7-3.7.5-.5 1.7-.8 3.5-.8 2.4 0 3.8.3 4.2.9.4.6.6 2.7.6 6.2s-.2 5.6-.6 6.3zM410.9 228.8c-3.8 0-6.2.6-7.1 1.7-.9 1.1-1.4 4.1-1.4 8.9 0 4.8.4 7.8 1.4 9 .9 1.1 3.3 1.7 7.1 1.7 3.9 0 6.2-.6 7.1-1.7.9-1.1 1.4-4.1 1.4-9 0-4.8-.4-7.8-1.4-8.9-.9-1.1-3.2-1.7-7.1-1.7zm3.9 16.8c-.4.7-1.7 1.1-3.9 1.1-2 0-3.3-.3-3.8-.8s-.7-1.8-.7-3.9v-5.2c0-2 .2-3.2.7-3.7.5-.5 1.7-.8 3.5-.8 2.4 0 3.8.3 4.2.9.4.6.6 2.7.6 6.2 0 3.4-.2 5.5-.6 6.2zM464.7 363.7l5.5-5.4v17.5h3.9v-21h-5l-6.8 6.3zM430.6 354.6c-3.8 0-6.2.6-7.1 1.7-.9 1.1-1.4 4.1-1.4 8.9 0 4.8.5 7.8 1.4 9 .9 1.1 3.3 1.7 7.1 1.7 3.9 0 6.2-.6 7.1-1.7.9-1.1 1.4-4.1 1.4-9 0-4.8-.4-7.8-1.4-8.9-.9-1.1-3.2-1.7-7.1-1.7zm3.9 16.9c-.4.7-1.7 1.1-3.8 1.1-2.1 0-3.3-.3-3.8-.8s-.7-1.8-.7-3.9V362.6c0-2 .2-3.2.7-3.7.5-.5 1.6-.8 3.5-.8 2.4 0 3.8.3 4.2.9.4.6.6 2.7.6 6.2-.1 3.5-.3 5.6-.7 6.3zM450.4 197.3c-3.9 0-6.2.6-7.1 1.7-.9 1.1-1.4 4.1-1.4 8.9 0 4.8.5 7.8 1.4 9 .9 1.1 3.3 1.7 7.1 1.7s6.2-.6 7.1-1.7c.9-1.1 1.3-4.1 1.3-9 0-4.8-.5-7.8-1.3-8.9-.9-1.1-3.3-1.7-7.1-1.7zm3.9 16.9c-.4.7-1.7 1.1-3.9 1.1-2.1 0-3.3-.2-3.8-.8-.5-.5-.7-1.8-.7-3.9v-5.4c0-2 .2-3.2.7-3.7.5-.5 1.7-.8 3.5-.8 2.4 0 3.8.3 4.2.9.4.6.6 2.7.6 6.2 0 3.6-.2 5.7-.6 6.4zM252.9 165.9c-3.9 0-6.2.6-7.1 1.7-.9 1.1-1.4 4.1-1.4 8.9 0 4.8.4 7.8 1.4 9 .9 1.1 3.3 1.7 7.1 1.7 3.9 0 6.2-.6 7.1-1.7.9-1.1 1.4-4.1 1.4-9 0-4.8-.5-7.8-1.4-8.9-.9-1.2-3.2-1.7-7.1-1.7zm3.9 16.8c-.4.7-1.7 1.1-3.9 1.1-2.1 0-3.3-.2-3.8-.7-.5-.5-.7-1.8-.7-3.9v-5.3c0-2 .2-3.2.7-3.7.5-.5 1.7-.8 3.5-.8 2.4 0 3.8.3 4.2.9.4.6.6 2.7.6 6.2.1 3.4-.2 5.5-.6 6.2zM410.9 218.6c3.8 0 6.2-.6 7.1-1.7.9-1.1 1.4-4.1 1.4-9 0-4.8-.5-7.8-1.4-8.9-.9-1.1-3.3-1.7-7.1-1.7s-6.2.6-7.1 1.7c-.9 1.1-1.4 4.1-1.4 8.9 0 4.8.4 7.8 1.4 9 .8 1.2 3.2 1.7 7.1 1.7zm-4.5-13.4c0-2 .2-3.2.7-3.7.5-.5 1.7-.8 3.5-.8 2.4 0 3.8.3 4.2.9.4.6.6 2.7.6 6.2s-.2 5.6-.6 6.3c-.4.7-1.7 1.1-3.9 1.1-2.1 0-3.3-.2-3.8-.8-.5-.5-.7-1.8-.7-3.9V205.2zM470.2 201v17.5h3.9v-21h-5l-6.8 6.3 2.4 2.6zM454.4 187v-21h-5l-6.8 6.4 2.4 2.5 5.4-5.4V187zM450.3 323.2c-3.9 0-6.2.6-7.1 1.7-.9 1.1-1.4 4.1-1.4 8.9 0 4.8.5 7.8 1.4 9 .9 1.1 3.3 1.7 7.1 1.7 3.9 0 6.2-.6 7.1-1.7.9-1.1 1.4-4.1 1.4-9 0-4.8-.4-7.8-1.4-8.9-.8-1.2-3.2-1.7-7.1-1.7zm4 16.8c-.4.7-1.7 1.1-3.9 1.1-2.1 0-3.3-.3-3.8-.8s-.7-1.8-.7-3.9v-5.3c0-2 .2-3.2.7-3.7.5-.5 1.6-.8 3.5-.8 2.4 0 3.8.3 4.2.9.4.6.6 2.7.6 6.2s-.2 5.6-.6 6.3zM442.6 361.1l2.3 2.6 5.5-5.4v17.5h4v-21h-5zM450.3 291.7c-3.9 0-6.2.6-7.1 1.7-.9 1.1-1.4 4.1-1.4 8.9 0 4.8.5 7.8 1.4 9 .9 1.1 3.3 1.7 7.1 1.7 3.9 0 6.2-.6 7.1-1.7.9-1.1 1.4-4.1 1.4-9 0-4.8-.4-7.8-1.4-8.9-.8-1.1-3.2-1.7-7.1-1.7zm4 16.8c-.4.7-1.7 1.1-3.9 1.1-2.1 0-3.3-.2-3.8-.7-.5-.5-.7-1.8-.7-3.9V299.7c0-2 .2-3.2.7-3.7.5-.5 1.6-.8 3.5-.8 2.4 0 3.8.3 4.2.9.4.6.6 2.7.6 6.2 0 3.4-.2 5.5-.6 6.2zM454.4 249.9V229h-5l-6.8 6.3 2.4 2.5 5.5-5.4v17.5zM450.4 260.3c-3.9 0-6.2.6-7.1 1.7-.9 1.1-1.4 4.1-1.4 8.9 0 4.8.5 7.8 1.4 9 .9 1.1 3.3 1.7 7.1 1.7s6.2-.6 7.1-1.7c.9-1.1 1.3-4.1 1.3-9 0-4.8-.5-7.8-1.3-8.9-.9-1.2-3.3-1.7-7.1-1.7zm3.9 16.8c-.4.7-1.7 1.1-3.9 1.1-2.1 0-3.3-.2-3.8-.8-.5-.5-.7-1.8-.7-3.9v-5.3c0-2 .2-3.2.7-3.7.5-.5 1.7-.8 3.5-.8 2.4 0 3.8.3 4.2.9.4.6.6 2.7.6 6.2s-.2 5.6-.6 6.3zM220.5 324.9c-.9-1.1-3.3-1.7-7.1-1.7s-6.2.6-7.1 1.7c-.7.9-1.1 2.9-1.3 5.9l3.9 2.4v-2.1c0-2 .2-3.2.7-3.7.5-.5 1.7-.8 3.5-.8 2.4 0 3.8.3 4.2.9.4.6.6 2.7.6 6.2 0 2.3-.1 3.9-.3 5l3.6 2.3c.4-1.6.6-4 .6-7.2.1-4.8-.4-7.8-1.3-8.9zM281.1 365.3c0-4.8-.4-7.8-1.4-8.9-.9-1.1-3.3-1.7-7.1-1.7-3.9 0-6.2.6-7.1 1.7-.9 1.1-1.4 4.1-1.4 8.9 0 .9 0 1.8.1 2.6l4.1 2.6c-.1-.7-.2-1.5-.2-2.5V362.7c0-2 .2-3.2.7-3.7.5-.5 1.7-.8 3.5-.8 2.4 0 3.8.3 4.2.9.4.6.6 2.7.6 6.2s-.2 5.6-.6 6.3c-.4.7-1.7 1.1-3.9 1.1h-1l5 3.1c1.5-.3 2.5-.7 3.1-1.4 1-1.3 1.4-4.3 1.4-9.1zM161.3 293.4c-.9-1.1-3.3-1.7-7.1-1.7-3.9 0-6.2.6-7.1 1.7-.2.2-.3.5-.5.9l3.5 2.2.3-.6c.5-.5 1.7-.8 3.5-.8 2.4 0 3.8.3 4.2.9.4.6.6 2.6.6 5.9l3.9 2.4v-2c.1-4.8-.4-7.8-1.3-8.9zM178 291.9h-5.1l-6.7 6.3 2.3 2.6 5.5-5.4v16l2.2 1.5h1.8zM193.7 323.2h-.9l9.1 5.7c-.2-2-.6-3.3-1.1-4-.9-1.2-3.3-1.7-7.1-1.7zM398.2 356.3c-.9-1.1-3.3-1.7-7.1-1.7-3.9 0-6.2.6-7.1 1.7-.9 1.1-1.4 4.1-1.4 8.9 0 4.8.4 7.8 1.4 9 .9 1.1 3.3 1.7 7.1 1.7 1 0 1.9 0 2.7-.1l5.1-3.2c.4-1.6.7-4 .7-7.4 0-4.8-.5-7.7-1.4-8.9zm-3.2 15.2c-.4.7-1.7 1.1-3.9 1.1-2.1 0-3.3-.3-3.8-.8s-.7-1.8-.7-3.9V362.6c0-2 .2-3.2.7-3.7.5-.5 1.7-.8 3.5-.8 2.4 0 3.8.3 4.2.9.4.6.6 2.7.6 6.2.1 3.5-.2 5.6-.6 6.3zM251.9 354.8l-3.4 3.2 2.9 1.8 1.6-1.5v2.5l3.9 2.5v-8.5z"/><path class="st2" d="M502.5 356.3c-.9 1.1-1.4 4.1-1.4 8.9 0 4.8.5 7.8 1.4 9 .3.3.7.6 1.2.8l4.2-2.6c-1-.1-1.7-.3-2-.7-.5-.5-.7-1.8-.7-3.9V362.5c0-2 .2-3.2.7-3.7.5-.5 1.7-.8 3.5-.8 2.4 0 3.8.3 4.2.9.4.6.6 2.7.6 6.2 0 1.4 0 2.5-.1 3.4l.6-.4c1.7-1.1 2.9-2.7 3.4-4.6-.1-2.7-.3-4.7-.7-6-.5-.8-1.1-1.5-1.8-2.1-1.2-.6-3.2-.9-5.9-.9-4 .1-6.3.7-7.2 1.8zM419.3 365.3c0-4.8-.5-7.8-1.4-8.9-.9-1.1-3.3-1.7-7.1-1.7s-6.2.6-7.1 1.7c-.9 1.1-1.4 4.1-1.4 8.9 0 2 .1 3.7.2 5.1h.1l9 5.6c3.4-.1 5.5-.6 6.3-1.7 1-1.2 1.4-4.2 1.4-9zm-4.5 6.2c-.4.7-1.7 1.1-3.9 1.1-2.1 0-3.3-.3-3.8-.8s-.7-1.8-.7-3.9V362.6c0-2 .2-3.2.7-3.7.5-.5 1.7-.8 3.5-.8 2.4 0 3.8.3 4.2.9.4.6.6 2.7.6 6.2s-.2 5.6-.6 6.3zM469.1 323.3l-6.8 6.4 2.4 2.5 5.5-5.4v17.5h3.9v-14.8l-3-2 3-1.9v-2.3zM508.6 291.9l-6.8 6.3 2.4 2.6 5.4-5.4v8l4-2.5v-9zM537.8 302.4c0-4.8-.4-7.8-1.3-8.9-.9-1.1-3.3-1.7-7.1-1.7s-6.2.6-7.1 1.7c-.9 1.1-1.4 4.1-1.4 8.9v.3l4 2.5v-5.5c0-2 .2-3.2.7-3.7.5-.5 1.7-.8 3.5-.8 2.4 0 3.8.3 4.2.9.4.6.6 2.7.6 6.2s-.2 5.6-.6 6.3c-.2.4-.8.7-1.6.9l4.1 2.5c.3-.2.6-.4.8-.6.8-1.2 1.2-4.2 1.2-9zM493.9 344.3v-2.5l-4-2.5v5zM498.3 302.4c0-4.8-.4-7.8-1.3-8.9-.9-1.1-3.3-1.7-7.1-1.7s-6.2.6-7.1 1.7c-.9 1.1-1.4 4.1-1.4 8.9 0 4.8.5 7.8 1.4 9 .9 1.1 3.3 1.7 7.1 1.7 2.4 0 4.2-.2 5.5-.7l1.6-1c.9-1.2 1.3-4.2 1.3-9zm-4.6 6.1c-.4.7-1.7 1.1-3.9 1.1-2.1 0-3.3-.2-3.8-.7-.5-.5-.7-1.8-.7-3.9V299.7c0-2 .2-3.2.7-3.7.5-.5 1.7-.8 3.5-.8 2.4 0 3.8.3 4.2.9.4.6.6 2.7.6 6.2.1 3.4-.1 5.5-.6 6.2zM477.3 167.6c-.9-1.1-3.3-1.7-7.1-1.7s-6.2.6-7.1 1.7c-.9 1.1-1.4 4.1-1.4 8.9 0 4.8.5 7.8 1.4 9 .9 1.1 3.3 1.7 7.1 1.7.8 0 1.4 0 2-.1l5.9-3.7c.3-1.6.5-3.9.5-6.9 0-4.8-.4-7.8-1.3-8.9zm-3.3 15.1c-.4.7-1.7 1.1-3.9 1.1-2.1 0-3.3-.2-3.8-.7-.5-.5-.7-1.8-.7-3.9v-5.3c0-2 .2-3.2.7-3.7.5-.5 1.7-.8 3.5-.8 2.4 0 3.8.3 4.2.9.4.6.6 2.7.6 6.2.1 3.4-.1 5.5-.6 6.2zM481.4 208c0 4.8.5 7.8 1.4 9 .9 1.1 3.3 1.7 7.1 1.7s6.2-.6 7.1-1.7c.9-1.1 1.4-4.1 1.4-9 0-1.2 0-2.2-.1-3.2l-4.3-2.6c.3.9.4 2.8.4 5.7 0 3.5-.2 5.6-.6 6.3-.4.7-1.7 1.1-3.9 1.1-2.1 0-3.3-.2-3.8-.8-.5-.5-.7-1.8-.7-3.9v-5.4c0-2 .2-3.2.7-3.7.5-.5 1.7-.8 3.5-.8 1 0 1.7.1 2.4.2l-5.5-3.4c-1.8.3-3.1.8-3.7 1.5-1 1.2-1.4 4.1-1.4 9zM588.7 169.5V187h4v-21l-11.2 7 1.7 1.9zM568.9 187.2c3.9 0 6.2-.6 7.1-1.7.9-1.1 1.4-4.1 1.4-9v-.9l-4 2.5c-.1 2.5-.3 4-.6 4.6-.4.7-1.7 1.1-3.9 1.1-1.9 0-3-.2-3.6-.6l-3.6 2.3v.1c1 1 3.3 1.6 7.2 1.6zM502.5 216.9c.9 1.1 3.3 1.7 7.1 1.7s6.2-.6 7.1-1.7c.5-.7.9-2.1 1.1-4.2l-3.2 2-1.2-.7v.1c-.4.7-1.7 1.1-3.9 1.1-2.1 0-3.3-.2-3.8-.8-.5-.5-.7-1.8-.7-3.9v-1.6l-3.9-2.4v1.5c0 4.8.5 7.8 1.4 8.9zM533.4 218.5v-15.4l-4 2.5v12.9zM127.3 248.4c.9 1.1 3.3 1.7 7.1 1.7s6.2-.6 7.1-1.7c.9-1.1 1.4-4.1 1.4-9 0-4.8-.5-7.8-1.4-8.9-.9-1.1-3.3-1.7-7.1-1.7-.7 0-1.4 0-2 .1-2.2 1.4-4.2 2.7-6 3.7-.3 1.6-.5 3.9-.5 6.9 0 4.8.5 7.8 1.4 8.9zm2.6-11.7c0-2 .2-3.2.7-3.7.5-.5 1.7-.8 3.5-.8 2.4 0 3.8.3 4.2.9.4.6.6 2.7.6 6.2s-.2 5.6-.6 6.3c-.4.7-1.7 1.1-3.9 1.1-2.1 0-3.3-.3-3.8-.8s-.7-1.8-.7-3.9v-5.3zm-1-3c-.3 0-.6.1-.8.1.2-.1.5-.1.8-.1zM161.3 217c.8-1 1.2-3.3 1.3-7-1.4.9-2.8 1.7-4.1 2.6-.1.7-.2 1.3-.4 1.6-.4.7-1.7 1.1-3.8 1.1l-4.8 3c1.2.3 2.8.4 4.7.4 3.8-.1 6.2-.6 7.1-1.7zM121.8 248.4c.9-1.1 1.4-4.1 1.4-9 0-1.8-.1-3.4-.2-4.7-2.4 1.5-3.7 2.3-3.7 2.3l.1-.1c.1-.1.3-.1.4-.2-.2.1-.3.2-.5.3h-.1v2.2c0 3.5-.2 5.6-.6 6.3-.4.7-1.7 1.1-3.9 1.1-1.9 0-3.2-.2-3.7-.7-.4.7-.7 1.3-1 2.1-.1.2-.1.4-.2.5l-.3.9c1.2.4 3 .6 5.2.6 3.8.1 6.2-.5 7.1-1.6zm.6-13l-.6.3c.2 0 .4-.2.6-.3zM173.9 218.6c3.8 0 6.2-.6 7.1-1.7.9-1.1 1.4-4.1 1.4-9 0-4.8-.5-7.8-1.4-8.9l-.4-.4c-1.3.8-2.6 1.6-3.8 2.4.5.1.8.3 1 .6.4.6.6 2.7.6 6.2s-.2 5.6-.6 6.3c-.4.7-1.7 1.1-3.9 1.1-2.1 0-3.3-.2-3.8-.8-.5-.5-.7-1.8-.7-3.9V205.7c-1.3.8-2.7 1.7-4 2.5 0 4.7.5 7.6 1.3 8.7 1 1.2 3.4 1.7 7.2 1.7zM213.4 187.2c3.8 0 6.2-.6 7.1-1.7.9-1.1 1.4-4.1 1.4-9 0-1.3 0-2.5-.1-3.5l-3.9 2.4v1c0 3.5-.2 5.6-.6 6.3-.4.7-1.7 1.1-3.9 1.1-2.1 0-3.3-.2-3.8-.7-.3-.3-.5-1-.6-2-1.2.7-2.4 1.5-3.6 2.2.2 1 .5 1.8.9 2.2.9 1.1 3.3 1.7 7.1 1.7zM227.8 174.9l5.5-5.4V187h4v-21H233c-.8.5-1.6 1-2.3 1.5l-5.2 4.9 2.3 2.5zM233.2 201v17.5h4v-21h-5l-6.8 6.3 2.4 2.6zM197.7 229h-5l-6.8 6.3 2.4 2.5 5.4-5.4v17.5h4zM197.7 281.4v-21h-5l-6.8 6.3 2.4 2.6 5.4-5.4v17.5zM213.5 201v17.5h3.9v-21h-5l-6.8 6.3 2.4 2.6zM252.9 197.3c-3.9 0-6.2.6-7.1 1.7-.9 1.1-1.4 4.1-1.4 8.9 0 4.8.4 7.8 1.4 9 .9 1.1 3.3 1.7 7.1 1.7 3.9 0 6.2-.6 7.1-1.7.9-1.1 1.4-4.1 1.4-9 0-4.8-.5-7.8-1.4-8.9-.9-1.1-3.2-1.7-7.1-1.7zm3.9 16.9c-.4.7-1.7 1.1-3.9 1.1-2.1 0-3.3-.2-3.8-.8-.5-.5-.7-1.8-.7-3.9v-5.4c0-2 .2-3.2.7-3.7.5-.5 1.7-.8 3.5-.8 2.4 0 3.8.3 4.2.9.4.6.6 2.7.6 6.2.1 3.6-.2 5.7-.6 6.4zM233.2 232.4v17.5h4V229h-5l-6.8 6.3 2.4 2.5zM146.4 235.3l2.4 2.5 5.4-5.4v17.5h4V229h-5zM173.9 228.8c-3.9 0-6.2.6-7.1 1.7-.9 1.1-1.3 4.1-1.3 8.9 0 4.8.4 7.8 1.3 9 .9 1.1 3.3 1.7 7.1 1.7s6.2-.6 7.1-1.7c.9-1.1 1.4-4.1 1.4-9 0-4.8-.5-7.8-1.4-8.9-.9-1.1-3.2-1.7-7.1-1.7zm3.9 16.8c-.4.7-1.7 1.1-3.9 1.1-2.1 0-3.3-.3-3.8-.8s-.7-1.8-.7-3.9v-5.2c0-2 .2-3.2.7-3.7.5-.5 1.7-.8 3.5-.8 2.4 0 3.8.3 4.2.9.4.6.6 2.7.6 6.2.1 3.4-.1 5.5-.6 6.2zM193.7 218.6c3.8 0 6.2-.6 7.1-1.7.9-1.1 1.4-4.1 1.4-9 0-4.8-.4-7.8-1.4-8.9-.9-1.1-3.3-1.7-7.1-1.7-3.9 0-6.2.6-7.1 1.7-.9 1.1-1.4 4.1-1.4 8.9 0 4.8.5 7.8 1.4 9 .8 1.2 3.2 1.7 7.1 1.7zm-4.6-13.4c0-2 .2-3.2.7-3.7.5-.5 1.7-.8 3.5-.8 2.4 0 3.8.3 4.2.9.4.6.6 2.7.6 6.2s-.2 5.6-.6 6.3c-.4.7-1.7 1.1-3.9 1.1-2.1 0-3.3-.2-3.8-.8-.5-.5-.7-1.8-.7-3.9V205.2zM272.7 169.5V187h4v-21h-5l-6.8 6.4 2.4 2.5zM272.6 281.6c3.8 0 6.2-.6 7.1-1.7.9-1.1 1.4-4.1 1.4-9 0-4.8-.5-7.8-1.4-8.9-.9-1.1-3.3-1.7-7.1-1.7s-6.2.6-7.1 1.7c-.9 1.1-1.4 4.1-1.4 8.9 0 4.8.5 7.8 1.4 9 .9 1.1 3.3 1.7 7.1 1.7zm-4.5-13.4c0-2 .2-3.2.7-3.7.5-.5 1.7-.8 3.5-.8 2.4 0 3.8.3 4.2.9.4.6.6 2.7.6 6.2s-.2 5.6-.6 6.3c-.4.7-1.7 1.1-3.9 1.1-2.1 0-3.3-.2-3.8-.8-.5-.5-.7-1.8-.7-3.9v-5.3zM213.4 291.7c-3.9 0-6.2.6-7.1 1.7-.9 1.1-1.3 4.1-1.3 8.9 0 4.8.4 7.8 1.3 9 .9 1.1 3.3 1.7 7.1 1.7s6.2-.6 7.1-1.7c.9-1.1 1.4-4.1 1.4-9 0-4.8-.5-7.8-1.4-8.9-.9-1.1-3.2-1.7-7.1-1.7zm3.9 16.8c-.4.7-1.7 1.1-3.9 1.1-2.1 0-3.3-.2-3.8-.7-.5-.5-.7-1.8-.7-3.9V299.7c0-2 .2-3.2.7-3.7.5-.5 1.7-.8 3.5-.8 2.4 0 3.8.3 4.2.9.4.6.6 2.7.6 6.2.1 3.4-.2 5.5-.6 6.2zM213.4 228.8c-3.9 0-6.2.6-7.1 1.7-.9 1.1-1.3 4.1-1.3 8.9 0 4.8.4 7.8 1.3 9 .9 1.1 3.3 1.7 7.1 1.7s6.2-.6 7.1-1.7c.9-1.1 1.4-4.1 1.4-9 0-4.8-.5-7.8-1.4-8.9-.9-1.1-3.2-1.7-7.1-1.7zm3.9 16.8c-.4.7-1.7 1.1-3.9 1.1-2.1 0-3.3-.3-3.8-.8s-.7-1.8-.7-3.9v-5.2c0-2 .2-3.2.7-3.7.5-.5 1.7-.8 3.5-.8 2.4 0 3.8.3 4.2.9.4.6.6 2.7.6 6.2.1 3.4-.2 5.5-.6 6.2zM193.7 291.7c-3.8 0-6.2.6-7.1 1.7-.9 1.1-1.4 4.1-1.4 8.9 0 4.8.5 7.8 1.4 9 .9 1.1 3.3 1.7 7.1 1.7 3.9 0 6.2-.6 7.1-1.7.9-1.1 1.4-4.1 1.4-9 0-4.8-.5-7.8-1.4-8.9-.9-1.1-3.3-1.7-7.1-1.7zm3.9 16.8c-.4.7-1.7 1.1-3.9 1.1-2.1 0-3.3-.2-3.8-.7-.5-.5-.7-1.8-.7-3.9V299.7c0-2 .2-3.2.7-3.7.5-.5 1.7-.8 3.5-.8 2.4 0 3.8.3 4.2.9.4.6.6 2.7.6 6.2 0 3.4-.2 5.5-.6 6.2zM213.4 260.3c-3.9 0-6.2.6-7.1 1.7-.9 1.1-1.3 4.1-1.3 8.9 0 4.8.4 7.8 1.3 9 .9 1.1 3.3 1.7 7.1 1.7s6.2-.6 7.1-1.7c.9-1.1 1.4-4.1 1.4-9 0-4.8-.5-7.8-1.4-8.9-.9-1.2-3.2-1.7-7.1-1.7zm3.9 16.8c-.4.7-1.7 1.1-3.9 1.1-2.1 0-3.3-.2-3.8-.8-.5-.5-.7-1.8-.7-3.9v-5.3c0-2 .2-3.2.7-3.7.5-.5 1.7-.8 3.5-.8 2.4 0 3.8.3 4.2.9.4.6.6 2.7.6 6.2.1 3.5-.2 5.6-.6 6.3zM272.6 218.6c3.8 0 6.2-.6 7.1-1.7.9-1.1 1.4-4.1 1.4-9 0-4.8-.4-7.8-1.4-8.9-.9-1.1-3.3-1.7-7.1-1.7-3.9 0-6.2.6-7.1 1.7-.9 1.1-1.4 4.1-1.4 8.9 0 4.8.4 7.8 1.4 9 .9 1.2 3.3 1.7 7.1 1.7zm-4.5-13.4c0-2 .2-3.2.7-3.7.5-.5 1.7-.8 3.5-.8 2.4 0 3.8.3 4.2.9.4.6.6 2.7.6 6.2s-.2 5.6-.6 6.3c-.4.7-1.7 1.1-3.9 1.1-2.1 0-3.3-.2-3.8-.8-.5-.5-.7-1.8-.7-3.9V205.2zM233.2 260.3c-3.9 0-6.2.6-7.1 1.7-.9 1.1-1.3 4.1-1.3 8.9 0 4.8.4 7.8 1.3 9 .9 1.1 3.3 1.7 7.1 1.7s6.2-.6 7.1-1.7c.9-1.1 1.4-4.1 1.4-9 0-4.8-.4-7.8-1.4-8.9-.9-1.2-3.3-1.7-7.1-1.7zm3.9 16.8c-.4.7-1.7 1.1-3.9 1.1-2.1 0-3.3-.2-3.8-.8-.5-.5-.7-1.8-.7-3.9v-5.3c0-2 .2-3.2.7-3.7.5-.5 1.7-.8 3.5-.8 2.4 0 3.8.3 4.2.9.4.6.6 2.7.6 6.2s-.2 5.6-.6 6.3zM628.2 169.5V187h4v-21h-5.1l-6.7 6.4 2.3 2.5zM647.9 326.8v17.5h4v-21h-5l-6.8 6.4 2.4 2.5zM245.1 329.7l2.4 2.5 5.4-5.4v17.5h4v-21h-5zM608.3 354.6c-1.5 0-2.8.1-3.9.3l5.1 3.2c1.5.1 2.4.4 2.7.9.1.2.2.6.3 1.1l4.2 2.6c-.1-3.3-.6-5.4-1.3-6.3-.8-1.2-3.2-1.8-7.1-1.8zM252.9 260.3c-3.8 0-6.2.6-7.1 1.7-.9 1.1-1.4 4.1-1.4 8.9 0 4.8.5 7.8 1.4 9 .9 1.1 3.3 1.7 7.1 1.7 3.9 0 6.2-.6 7.1-1.7.9-1.1 1.4-4.1 1.4-9 0-4.8-.4-7.8-1.4-8.9-.9-1.2-3.3-1.7-7.1-1.7zm3.9 16.8c-.4.7-1.7 1.1-3.9 1.1-2.1 0-3.3-.2-3.8-.8-.5-.5-.7-1.8-.7-3.9v-5.3c0-2 .2-3.2.7-3.7.5-.5 1.7-.8 3.5-.8 2.4 0 3.8.3 4.2.9.4.6.6 2.7.6 6.2s-.2 5.6-.6 6.3zM256.9 249.9V229h-5l-6.8 6.3 2.4 2.5 5.5-5.4v17.5zM245.1 298.2l2.4 2.6 5.5-5.4v17.5h3.9v-21h-5zM576 324.9c-.9-1.1-3.3-1.7-7.1-1.7s-6.2.6-7.1 1.7c-.4.5-.7 1.4-1 2.7l3.6 2.2c.1-1.3.3-2.1.7-2.5.5-.5 1.7-.8 3.5-.8 2.4 0 3.8.3 4.2.9.4.6.6 2.7.6 6.2v1.8l3.8 2.4c.1-1.2.1-2.5.1-4.1 0-4.7-.4-7.7-1.3-8.8zM628.1 201v17.5h4v-21h-5l-6.8 6.3 2.4 2.6zM588.6 228.8c-3.9 0-6.2.6-7.1 1.7-.9 1.1-1.4 4.1-1.4 8.9 0 4.8.5 7.8 1.4 9 .9 1.1 3.3 1.7 7.1 1.7s6.2-.6 7.1-1.7c.9-1.1 1.4-4.1 1.4-9 0-4.8-.5-7.8-1.4-8.9-.8-1.1-3.2-1.7-7.1-1.7zm3.9 16.8c-.4.7-1.7 1.1-3.9 1.1-2.1 0-3.3-.3-3.8-.8s-.7-1.8-.7-3.9v-5.2c0-2 .2-3.2.7-3.7.5-.5 1.7-.8 3.5-.8 2.4 0 3.8.3 4.2.9.4.6.6 2.7.6 6.2.1 3.4-.1 5.5-.6 6.2zM588.6 218.6c3.8 0 6.2-.6 7.1-1.7.9-1.1 1.3-4.1 1.3-9 0-4.8-.4-7.8-1.3-8.9-.9-1.1-3.3-1.7-7.1-1.7s-6.2.6-7.1 1.7c-.9 1.1-1.4 4.1-1.4 8.9 0 4.8.5 7.8 1.4 9 .9 1.2 3.2 1.7 7.1 1.7zm-4.5-13.4c0-2 .2-3.2.7-3.7.5-.5 1.7-.8 3.5-.8 2.4 0 3.8.3 4.2.9.4.6.6 2.7.6 6.2s-.2 5.6-.7 6.3c-.4.7-1.7 1.1-3.9 1.1-2.1 0-3.3-.2-3.8-.8-.5-.5-.7-1.8-.7-3.9v-2.6l.1-2.7zM608.4 187.2c3.9 0 6.2-.6 7.1-1.7.9-1.1 1.4-4.1 1.4-9 0-4.8-.5-7.8-1.4-8.9-.9-1.1-3.3-1.7-7.1-1.7s-6.2.6-7.1 1.7c-.9 1.1-1.3 4.1-1.3 8.9 0 4.8.4 7.8 1.3 9 .9 1.1 3.2 1.7 7.1 1.7zm-4.5-13.4c0-2 .2-3.2.7-3.7.5-.5 1.7-.8 3.5-.8 2.4 0 3.8.3 4.2.9.4.6.6 2.7.6 6.2s-.2 5.6-.6 6.3c-.4.7-1.7 1.1-3.9 1.1-2.1 0-3.3-.2-3.8-.7-.5-.5-.7-1.8-.7-3.9v-5.4zM608.3 218.6c3.9 0 6.2-.6 7.1-1.7.9-1.1 1.3-4.1 1.3-9 0-4.8-.5-7.8-1.3-8.9-.9-1.1-3.3-1.7-7.1-1.7s-6.2.6-7.1 1.7c-.9 1.1-1.3 4.1-1.3 8.9 0 4.8.4 7.8 1.3 9 .9 1.2 3.3 1.7 7.1 1.7zm-4.5-13.4c0-2 .2-3.2.7-3.7.5-.5 1.6-.8 3.5-.8 2.4 0 3.8.3 4.2.9.4.6.6 2.7.6 6.2s-.2 5.6-.6 6.3c-.4.7-1.7 1.1-3.9 1.1-2.1 0-3.3-.2-3.8-.8-.5-.5-.7-1.8-.7-3.9V205.2zM233.1 323.2c-3.9 0-6.2.6-7.1 1.7-.9 1.1-1.4 4.1-1.4 8.9 0 4.8.5 7.8 1.4 9 .9 1.1 3.3 1.7 7.1 1.7s6.2-.6 7.1-1.7c.9-1.1 1.4-4.1 1.4-9 0-4.8-.4-7.8-1.4-8.9-.8-1.2-3.2-1.7-7.1-1.7zM237 340c-.4.7-1.7 1.1-3.9 1.1-2.1 0-3.3-.3-3.8-.8s-.7-1.8-.7-3.9v-5.3c0-2 .2-3.2.7-3.7.5-.5 1.7-.8 3.5-.8 2.4 0 3.8.3 4.2.9.4.6.6 2.7.6 6.2.1 3.5-.1 5.6-.6 6.3zM233.2 291.7c-3.9 0-6.2.6-7.1 1.7-.9 1.1-1.3 4.1-1.3 8.9 0 4.8.4 7.8 1.3 9 .9 1.1 3.3 1.7 7.1 1.7s6.2-.6 7.1-1.7c.9-1.1 1.4-4.1 1.4-9 0-4.8-.4-7.8-1.4-8.9-.9-1.1-3.3-1.7-7.1-1.7zm3.9 16.8c-.4.7-1.7 1.1-3.9 1.1-2.1 0-3.3-.2-3.8-.7-.5-.5-.7-1.8-.7-3.9V299.7c0-2 .2-3.2.7-3.7.5-.5 1.7-.8 3.5-.8 2.4 0 3.8.3 4.2.9.4.6.6 2.7.6 6.2 0 3.4-.2 5.5-.6 6.2z"/><path d="M190.9 208.8c0-13.5 10.9-24.4 24.4-24.4 13.5 0 24.4 10.9 24.4 24.4 0 13.5-10.9 24.4-24.4 24.4-13.5 0-24.4-10.9-24.4-24.4z" fill-rule="evenodd" clip-rule="evenodd" fill="#d31245"/><path class="st5" d="M215.3 241c-17.7 0-32.2-14.4-32.2-32.2 0-17.7 14.4-32.2 32.2-32.2 17.7 0 32.2 14.4 32.2 32.2-.1 17.7-14.5 32.2-32.2 32.2zm0-48.8c-9.1 0-16.6 7.4-16.6 16.6 0 9.2 7.4 16.6 16.6 16.6 9.2 0 16.6-7.4 16.6-16.6 0-9.1-7.5-16.6-16.6-16.6z"/></g></g><g><path d="M276.6 256.4h295v90.8h-295z"/><path class="st5" d="M509.6 260.1h58.2V344h-58.2z"/><path d="M518.9 268.1h40.7v64.5h-40.7z"/><path d="M561.4 335h-44.9v-68.4h44.9V335zm-42-2.9h39.2v-62.7h-39.2v62.7z"/><path class="st6" d="M557.2 305.8V271h-35.9c13.1 1.1 32.8 2.6 35.9 34.8"/><path class="st5" d="M537.3 333.6c9-5.6 15.2-15.6 15.2-27.1 0-17.6-14-31.8-31.3-31.8h-.1v9.7c15.7 0 28.7 12 28.7 26.8 0 8.8-5.4 17.5-12.5 22.4"/><path d="M537 333.8s-5.6 4-14.8 4v-1c.2-.1 6.9.1 14.8-3"/><path class="st6" d="M281.2 260.1h224.6V344H281.2z"/><path class="st5" d="M378 318.3c.5 0 21.1-46.3 21.3-46.3 3.7 20 7.4 39.9 11 59.9h-7.1c-2.1-12.3-4.6-24.7-6.7-37.1-.5 0-18.1 37.9-18.9 39.7-.3 0-16.5-36.9-17.9-40.3-2.1 12.4-4.9 25.3-7 37.7h-7.1c1.1-6.6 11.2-56.8 11.8-59.9.1.3 19.5 43.4 20.6 46.3M415.8 274.9h34.7v6.3h-14.2v50.4H430v-50.4h-14.2zM460.8 274.1h26v6.3h-19.7v16.5h19v6.3h-19v27.6h-6.3z"/><path d="M578.4 264.5c-2.3 0-4.1-1.8-4.1-4.1s1.8-4.1 4.1-4.1 4.1 1.9 4.1 4.1c0 2.2-1.8 4.1-4.1 4.1zm0-7.5c-1.8 0-3.4 1.5-3.4 3.4 0 1.8 1.5 3.4 3.4 3.4s3.4-1.5 3.4-3.4c-.1-1.9-1.6-3.4-3.4-3.4z"/><path d="M577.3 260.2h1.2c.3 0 .5 0 .6-.1.1-.1.3-.1.3-.3.1-.1.1-.3.1-.4 0-.2-.1-.4-.2-.5-.1-.1-.4-.2-.7-.2h-1.4v1.5zm-.6 2.4v-4.4h1.9c.4 0 .7 0 .9.1.2.1.4.2.5.4.1.2.2.4.2.7 0 .3-.1.6-.3.8-.2.2-.5.3-.9.4.2.1.3.1.4.2.2.1.3.3.5.6l.8 1.2h-.7l-.6-.9c-.2-.3-.3-.5-.4-.6l-.3-.3c-.1-.1-.2-.1-.3-.1h-1v1.9h-.7z"/><path class="st5" d="M309.4 273.8h-14v57.8c6.8.2 13.5 0 13.8 0 21.4 0 31.8-11.5 31.8-28.9.1-15.7-8.6-28.9-31.6-28.9m-.1 51.4H301.9v-44.9h7.6c16.7 0 25.2 7.6 25.2 22.5-.1 14.8-8.6 22.4-25.4 22.4"/></g><g><path d="M680.9 162.2c-1.5 1.5-3.2 2.2-5.3 2.2-2.1 0-3.9-.7-5.3-2.2-1.5-1.5-2.2-3.3-2.2-5.3 0-2.1.7-3.8 2.2-5.3 1.5-1.5 3.2-2.2 5.3-2.2 2.1 0 3.9.7 5.3 2.2 1.5 1.5 2.2 3.2 2.2 5.3.1 2-.7 3.8-2.2 5.3zm-9.9-10c-1.3 1.3-1.9 2.8-1.9 4.6 0 1.8.6 3.3 1.9 4.6 1.3 1.3 2.8 1.9 4.6 1.9s3.3-.6 4.6-1.9c1.3-1.3 1.9-2.8 1.9-4.6 0-1.8-.6-3.3-1.9-4.6-1.3-1.3-2.8-1.9-4.6-1.9-1.8 0-3.3.7-4.6 1.9zm4.5.5c1 0 1.8.1 2.3.3.9.4 1.3 1.1 1.3 2.1 0 .7-.3 1.3-.8 1.6-.3.2-.7.3-1.2.4.6.1 1.1.4 1.4.8.3.4.4.9.4 1.3v1.2c0 .2 0 .4.1.4l.1.1h-1.4v-.1-1.1c0-1-.3-1.6-.8-1.9-.3-.2-.8-.3-1.6-.3H674v3.3h-1.5v-8.3h3zm1.5 1.3c-.4-.2-1-.3-1.8-.3H674v3h1.3c.6 0 1.1-.1 1.4-.2.6-.2.9-.7.9-1.3 0-.6-.2-1-.6-1.2z"/></g></svg>